<svg width="68" height="96" viewBox="0 0 68 96" fill="none" xmlns="http://www.w3.org/2000/svg">
<path d="M53.2875 68.8938L64.9357 62.1247L64.9495 57.5293L53.2985 64.2984L53.2875 68.8938Z" fill="#B4B4B4"/>
<path d="M53.2985 64.2969L64.9495 57.5278L16.0891 29.3164L4.43816 36.0883L53.2985 64.2969Z" fill="#E2E3E4"/>
<path d="M53.2876 68.8919L53.2986 64.2966L4.43826 36.0879L4.42448 40.6833L53.2876 68.8919Z" fill="#DCDCDC"/>
<path d="M12.2076 40.6578L23.8586 33.8859L23.9385 6.31641L12.2875 13.0883L12.2076 40.6578Z" fill="#B4B4B4"/>
<path d="M12.287 13.0888L23.938 6.31694L17.4912 2.59766L5.84025 9.36675L12.287 13.0888Z" fill="#C6C7C8"/>
<path d="M5.76346 36.9367L12.2075 40.6587L12.2874 13.0892L5.8406 9.36719L5.76346 36.9367Z" fill="#DCDCDC"/>
<path d="M25.098 48.0992L36.749 41.3273L36.8262 13.7578L25.1752 20.5297L25.098 48.0992Z" fill="#B4B4B4"/>
<path d="M25.1752 20.5321L36.8262 13.7603L30.3822 10.041L18.7312 16.8101L25.1752 20.5321Z" fill="#C6C7C8"/>
<path d="M18.6539 44.3781L25.0979 48.1001L25.175 20.5306L18.7311 16.8086L18.6539 44.3781Z" fill="#DCDCDC"/>
<path d="M37.986 55.5425L49.637 48.7707L49.7141 21.2012L38.0659 27.973L37.986 55.5425Z" fill="#B4B4B4"/>
<path d="M38.0659 27.9735L49.7141 21.2017L43.2701 17.4824L31.6191 24.2515L38.0659 27.9735Z" fill="#C6C7C8"/>
<path d="M31.542 51.8195L37.986 55.5415L38.0659 27.972L31.6192 24.25L31.542 51.8195Z" fill="#DCDCDC"/>
<path d="M50.8769 62.9812L62.5278 56.2093L62.605 28.6426L50.954 35.4117L50.8769 62.9812Z" fill="#B4B4B4"/>
<path d="M50.954 35.411L62.605 28.642L56.161 24.9199L44.51 31.689L50.954 35.411Z" fill="#C6C7C8"/>
<path d="M44.43 59.257L50.8767 62.979L50.9539 35.4095L44.5099 31.6875L44.43 59.257Z" fill="#DCDCDC"/>
<path d="M28.5086 8.2267L41.1689 0.868174L14.5819 0L1.9215 7.35553L28.5086 8.2267Z" fill="#E2E3E4"/>
<path d="M55.0149 38.012L67.6753 30.6535L41.169 0.869141L28.5087 8.22766L55.0149 38.012Z" fill="#F0F0F0"/>
<path d="M28.5084 8.22664L1.92133 7.35547L55.0146 38.011L28.5084 8.22664Z" fill="#DCDCDC"/>
<path d="M17.7898 94.3319V77.7695H12.0349V94.3319C12.0372 94.7592 12.3213 95.1865 12.885 95.5115C14.0123 96.1615 15.8351 96.1615 16.9557 95.5115C17.5148 95.1842 17.7943 94.7592 17.7898 94.3319Z" fill="#005A9F"/>
<path d="M16.9422 76.5911C18.0696 77.2411 18.0741 78.298 16.9559 78.948C15.8354 79.5981 14.0125 79.5981 12.8852 78.948C11.7578 78.298 11.751 77.2411 12.8715 76.5888C13.9921 75.9388 15.8149 75.9388 16.9422 76.5911Z" fill="#0078D4"/>
<path d="M16.1691 71.8545C15.4713 71.4522 14.344 71.4522 13.6508 71.8545C13.3053 72.0567 13.1326 72.3204 13.1326 72.584V77.4298C13.1348 77.6934 13.3099 77.9571 13.6576 78.1594C14.3554 78.5617 15.4827 78.5617 16.1759 78.1594C16.5214 77.9594 16.6941 77.6934 16.6919 77.4298V72.584C16.6919 72.3204 16.5169 72.0567 16.1691 71.8545Z" fill="#5EABDF"/>
<path d="M17.3104 67.6226C11.6873 64.3769 7.14614 56.5106 7.16433 50.0511C7.17569 46.8418 8.30757 44.5849 10.135 43.5234L5.35513 46.3009C3.52775 47.3623 2.39586 49.6192 2.38677 52.8285C2.36859 59.288 6.90976 67.1544 12.5328 70.4C15.3603 72.0319 17.924 72.1842 19.7742 71.1091L24.554 68.3317C22.7016 69.4068 20.1401 69.2545 17.3104 67.6226Z" fill="#005A9F"/>
<path opacity="0.4" d="M13.9212 69.5403C19.542 72.7859 24.1128 70.1813 24.1309 63.7218C24.1491 57.2623 19.6079 49.3959 13.9872 46.1503C8.36411 42.9047 3.79338 45.5094 3.7752 51.9688C3.75702 58.426 8.29819 66.2924 13.9212 69.5403Z" fill="#E1F0F0"/>
<path d="M12.6235 44.2442C19.5717 48.2558 25.1879 57.9837 25.1652 65.9682C25.1424 73.9551 19.4898 77.1757 12.5417 73.1641C5.5913 69.1502 -0.0226598 59.4247 6.8771e-05 51.4378C0.0205245 43.4533 5.67313 40.2304 12.6235 44.2442ZM12.5303 70.3867C18.1511 73.6323 22.7218 71.0276 22.74 64.5682C22.7582 58.1087 18.217 50.2423 12.5963 46.9967C6.9732 43.751 2.40248 46.3557 2.3843 52.8152C2.36612 59.2747 6.90956 67.141 12.5303 70.3867Z" fill="#0078D4"/>
<path d="M17.3444 41.5372C13.8488 39.5189 10.6804 39.3325 8.39164 40.6622L3.61182 43.4396C5.90059 42.11 9.06895 42.2963 12.5669 44.3169C19.515 48.3285 25.1313 58.0563 25.1085 66.0409C25.0972 70.0093 23.6971 72.8004 21.4379 74.1118L26.2177 71.3344C28.4769 70.0207 29.877 67.2296 29.8884 63.2635C29.9088 55.2766 24.2926 45.5488 17.3444 41.5372Z" fill="#005EB8"/>
</svg>
