<svg width="54" height="96" viewBox="0 0 54 96" fill="none" xmlns="http://www.w3.org/2000/svg">
<path d="M17.3591 30.8321C19.4631 29.6097 22.0172 29.1596 24.8616 29.5697L13.5986 36.1134C10.7516 35.7032 8.20017 36.1533 6.09619 37.3758C9.47588 35.413 13.9795 32.795 17.3591 30.8321Z" fill="#015BA1"/>
<path d="M24.8616 29.5703C25.3676 30.1988 25.8949 30.8061 26.4382 31.384C22.683 33.5652 18.9305 35.7464 15.1753 37.9276L15.1726 37.925C18.9198 35.7491 22.6644 33.5705 26.4116 31.3947C22.6644 33.5705 18.9198 35.7491 15.1726 37.925C14.6293 37.347 14.1047 36.7425 13.5986 36.114C16.9783 34.1511 21.4846 31.5331 24.8616 29.5703Z" fill="#0077D6"/>
<path d="M26.4382 31.3867C26.9789 31.962 27.5355 32.5133 28.1054 33.0326C24.3502 35.2138 20.5977 37.395 16.8425 39.5763C16.2726 39.0569 15.7133 38.5056 15.1753 37.9304C18.9305 35.7491 22.6857 33.5679 26.4382 31.3867Z" fill="#0077D6"/>
<path d="M29.863 34.4941C26.1078 36.6753 22.3553 38.8565 18.6001 41.0377C18.0088 40.5876 17.4256 40.1003 16.861 39.5863C20.6002 37.413 24.3394 35.2398 28.0813 33.0666C24.3421 35.2398 20.6029 37.413 16.861 39.5863C16.8556 39.5809 16.8503 39.5783 16.8477 39.5729C20.6029 37.3917 24.3554 35.2105 28.1106 33.0293C28.6779 33.5486 29.2638 34.0387 29.863 34.4941Z" fill="#0077D6"/>
<path d="M29.8873 34.5147C22.3236 38.9091 20.7736 39.812 18.627 41.061C18.619 41.053 18.6083 41.0477 18.6003 41.0397C22.3555 38.8585 26.1081 36.6773 29.8633 34.4961C29.8713 34.5014 29.8793 34.5067 29.8873 34.5147Z" fill="#0077D6"/>
<path d="M29.8872 34.5156C30.4838 34.9684 31.091 35.3865 31.7089 35.7674C27.9537 37.9486 24.2012 40.1298 20.446 42.311C19.8307 41.9302 19.2235 41.512 18.627 41.0619C20.7735 39.8129 22.3236 38.91 29.8872 34.5156Z" fill="#0077D6"/>
<path d="M31.7756 35.8043C28.0203 37.9856 24.2678 40.1668 20.5126 42.348C20.4966 42.3373 20.478 42.3267 20.462 42.316C24.2119 40.1375 27.9618 37.9589 31.709 35.7804C27.9591 37.9589 24.2092 40.1375 20.462 42.316C20.4593 42.3134 20.4567 42.3134 20.454 42.3107C20.4513 42.308 20.4487 42.308 20.4434 42.3054C24.1986 40.1241 26.6834 35.7617 31.7063 35.7617C31.709 35.7644 31.7116 35.7644 31.717 35.7671C31.7356 35.783 31.7569 35.7937 31.7756 35.8043Z" fill="#0077D6"/>
<path d="M32.055 35.9744C28.2998 38.1556 24.5473 40.3368 20.7921 42.5181C20.7655 42.5021 20.7335 42.4834 20.6989 42.4621C20.6376 42.4249 20.5764 42.3902 20.5125 42.3503C24.2677 40.1691 28.0202 37.9879 31.7754 35.8066C31.8393 35.8466 31.9006 35.8839 31.9618 35.9185C31.9965 35.9398 32.0284 35.9584 32.055 35.9744Z" fill="#0077D6"/>
<path d="M32.0552 35.9766C32.1617 36.0405 32.1937 36.0565 32.223 36.0751L20.96 42.6187C20.9307 42.6001 20.8988 42.5841 20.7922 42.5202C24.5474 40.339 28.3 38.1578 32.0552 35.9766Z" fill="#0077D6"/>
<path d="M32.3907 36.1655C28.6355 38.3467 24.883 40.5279 21.1277 42.7091C21.1118 42.6985 21.0931 42.6905 21.0745 42.6798C21.0372 42.6585 20.9999 42.6372 20.96 42.6159L32.2229 36.0723C32.2602 36.0936 32.2975 36.1149 32.3374 36.1362C32.3561 36.1468 32.3747 36.1575 32.3907 36.1655Z" fill="#0077D6"/>
<path d="M32.7209 36.3491C28.9657 38.5303 25.2131 40.7115 21.4579 42.8927C21.386 42.8528 21.3141 42.8155 21.1277 42.7116C24.8829 40.5304 28.6354 38.3492 32.3906 36.168C32.5771 36.2692 32.649 36.3091 32.7209 36.3491Z" fill="#0077D6"/>
<path d="M32.721 36.3477C28.9684 38.5289 25.2132 40.7101 21.4607 42.894C25.2132 40.7101 28.9658 38.5289 32.721 36.3477Z" fill="#0077D6"/>
<path d="M32.721 36.3477C35.2191 37.6953 37.5601 38.2386 39.5948 38.0708L28.3319 44.6144C26.2945 44.7822 23.9562 44.2363 21.458 42.8913C25.2132 40.7101 28.9658 38.5289 32.721 36.3477Z" fill="#0077D6"/>
<path d="M13.6013 36.1129C15.6307 38.627 17.9637 40.7789 20.4565 42.3156C20.5418 42.3689 20.6217 42.4168 20.6989 42.4621C20.8853 42.5713 20.9226 42.5953 20.9599 42.6166C20.9972 42.6379 21.0345 42.6592 21.0744 42.6805C21.3008 42.8083 21.3807 42.8509 21.4579 42.8936C23.9561 44.2412 26.2971 44.7845 28.3318 44.6167C36.2311 52.6065 41.8346 64.6311 41.8053 74.9167L0 50.7821C0.0292959 40.4966 5.68074 34.9703 13.6013 36.1129Z" fill="#0077D6"/>
<path d="M39.5947 38.0723C47.494 46.0621 53.0975 58.0867 53.0682 68.3722L41.8052 74.9159C41.8345 64.6303 36.231 52.6057 28.3318 44.6159C31.7115 42.6557 36.2177 40.0378 39.5947 38.0723Z" fill="#015BA1"/>
<path d="M21.0557 8.5778C29.2372 13.2998 35.8475 24.7491 35.8208 34.1505C35.8022 40.4704 32.79 44.2549 28.3317 44.6224C26.2943 44.7902 23.956 44.2443 21.4632 42.902C21.3779 42.8567 21.298 42.8114 21.2208 42.7688C21.0344 42.6649 20.9971 42.641 20.9598 42.6197C20.9225 42.5984 20.8852 42.5744 20.8453 42.5531C20.6189 42.4173 20.539 42.372 20.4618 42.3214C17.9636 40.782 15.628 38.6301 13.5985 36.116C9.15622 30.611 6.17602 23.3669 6.19467 17.047C6.22396 7.64832 12.8768 3.85583 21.0557 8.5778Z" fill="#F0F0F0"/>
<path d="M32.3188 2.03143C28.2014 -0.344205 24.4728 -0.565258 21.7803 0.998079L10.5173 7.54439C13.2099 5.97839 16.9411 6.19944 21.0559 8.57774C29.2374 13.2997 35.8477 24.7491 35.821 34.1504C35.8077 38.8191 34.1591 42.1056 31.5012 43.6503L42.7642 37.1066C45.4221 35.5619 47.0707 32.2755 47.084 27.6068C47.1106 18.2028 40.5004 6.7534 32.3188 2.03143Z" fill="#DCDCDC"/>
<path d="M35.6646 84.1856L35.6709 82.0452L33.8079 80.9688L33.8016 83.1091L35.6646 84.1856Z" fill="black"/>
<path d="M35.7073 69.1976L33.8443 68.1211L33.8143 78.8277L35.6773 79.9042L35.7073 69.1976Z" fill="black"/>
<path d="M34.8121 55.8125L20.7451 79.8627L48.6978 96.0007L34.8121 55.8125ZM35.6773 79.9052L33.8144 78.8287L33.8443 68.1221L35.7073 69.1986L35.6773 79.9052ZM33.8018 83.1111L33.8081 80.9707L35.671 82.0472L35.6647 84.1876L33.8018 83.1111Z" fill="#F0F0F0"/>
<path d="M48.6976 95.9991L52.5859 93.7405L38.7002 53.5508L34.8119 55.811L48.6976 95.9991Z" fill="#B4B4B4"/>
</svg>
