<svg width="64" height="96" viewBox="0 0 64 96" fill="none" xmlns="http://www.w3.org/2000/svg">
<path d="M17.449 3.37981L58.1255 26.8642L59.1008 26.3012L18.4112 2.82422L17.449 3.37981Z" fill="#EFEFEB"/>
<path d="M19.3869 2.26172L18.4111 2.82521L59.1008 26.3022L60.0766 25.7387L19.3869 2.26172Z" fill="#E6E6E6"/>
<path d="M61.0524 25.1743L20.3628 1.69727L19.387 2.26051L60.0766 25.7375L61.0524 25.1743Z" fill="#EFEFEB"/>
<path d="M62.0282 24.6098L21.3386 1.13281L20.3628 1.69631L61.0524 25.1733L62.0282 24.6098Z" fill="#E6E6E6"/>
<path d="M63.0041 24.0473L22.3144 0.570312L21.3386 1.13356L62.0283 24.6106L63.0041 24.0473Z" fill="#EFEFEB"/>
<path d="M23.29 0.0078125L22.3145 0.571059L63.0041 24.0481L63.9789 23.4851L23.29 0.0078125Z" fill="#E6E6E6"/>
<path d="M63.9788 79.5472L58.1255 82.9267V26.8636L63.9788 23.4844V79.5472Z" fill="#D2D2D2"/>
<path d="M17.449 3.38086V59.4439L58.1255 82.9283V26.8653L17.449 3.38086Z" fill="#FAF9F0"/>
<path d="M31.8203 7.56058C31.8686 7.5477 31.9177 7.53654 31.967 7.52539C31.918 7.53654 31.8686 7.54745 31.8203 7.56058Z" fill="#D3D1E9"/>
<path d="M31.3472 7.72702C31.3586 7.72206 31.3702 7.71785 31.3816 7.71289C31.3702 7.71785 31.3586 7.72206 31.3472 7.72702Z" fill="#D3D1E9"/>
<path d="M31.5811 7.634C31.6123 7.62309 31.6443 7.61368 31.676 7.60352C31.6443 7.61392 31.6123 7.62309 31.5811 7.634Z" fill="#D3D1E9"/>
<path d="M59.101 26.3008L58.1255 26.864V82.9271L59.101 82.3638V26.3008Z" fill="#D2D2D2"/>
<path d="M59.1011 26.2996V82.3626L60.0766 81.7994V25.7363L59.1011 26.2996Z" fill="#C8C8C8"/>
<path d="M60.0767 25.739V81.8021L61.0525 81.2388V25.1758L60.0767 25.739Z" fill="#D2D2D2"/>
<path d="M61.0525 25.1746V81.2376L62.028 80.6744V24.6113L61.0525 25.1746Z" fill="#C8C8C8"/>
<path d="M62.0278 80.6732L63.0036 80.1097V24.0469L62.0278 24.6101V80.6732Z" fill="#D2D2D2"/>
<path d="M63.9787 79.5472V23.4844L63.0037 24.0474V80.1102L63.9787 79.5472Z" fill="#C8C8C8"/>
<path d="M42.8205 20.1612C42.8205 19.0841 42.6412 17.9695 42.2827 16.8176C41.9238 15.6654 41.4314 14.5537 40.8042 13.4793C40.1765 12.4057 39.4467 11.4262 38.6132 10.5376C37.7797 9.65 36.8882 8.93211 35.9383 8.38368C34.9882 7.83501 34.0969 7.52374 33.2634 7.44914C32.4299 7.37527 31.6996 7.51164 31.0724 7.86095C30.4447 8.21076 29.9523 8.75375 29.5939 9.49189C29.2352 10.2298 29.0561 11.1377 29.0561 12.2147L22.1741 8.24114V18.737L49.7025 34.6305V24.1346L42.8205 20.1612ZM35.9383 20.0908C34.0376 18.9935 32.4968 16.3566 32.4968 14.2014C32.4968 12.046 34.0376 11.1886 35.9383 12.2856C37.839 13.3827 39.3798 16.0199 39.3798 18.175C39.3798 20.3304 37.839 21.1882 35.9383 20.0908Z" fill="#B7AEAE"/>
<path d="M51.551 23.0684L49.7026 24.1356V34.6317L51.551 33.5645V23.0684Z" fill="#867878"/>
<path d="M50.5228 15.7161C50.5228 14.639 50.3437 13.5244 49.9852 12.3725C49.6263 11.2203 49.1339 10.1086 48.5067 9.03425C47.879 7.96062 47.1492 6.98112 46.3157 6.09252C45.4822 5.20491 44.5906 4.48702 43.6408 3.9386C42.6907 3.38993 41.7994 3.07866 40.9659 3.00381C40.1326 2.92994 39.4021 3.06655 38.7749 3.41562L31.1174 7.83859C31.7348 7.50731 32.4497 7.37737 33.2635 7.4495C34.0967 7.52411 34.988 7.83562 35.9384 8.38405C36.8882 8.93247 37.7798 9.65061 38.6133 10.538C39.4466 11.4266 40.1766 12.4061 40.8043 13.4797C41.4315 14.5541 41.9241 15.6657 42.2828 16.8179C42.6413 17.9699 42.8204 19.0845 42.8204 20.1616L50.5228 15.7161Z" fill="#9E9393"/>
<path d="M37.7951 18.1871C35.8943 17.0897 34.3536 14.4531 34.3536 12.2977C34.3536 12.1275 34.3664 11.9684 34.3852 11.8145C33.2656 11.812 32.4968 12.6825 32.4968 14.2033C32.4968 16.3585 34.0376 18.9954 35.9383 20.0927C37.6888 21.1033 39.1308 20.4526 39.3482 18.6604C38.8813 18.6594 38.3546 18.5099 37.7951 18.1871Z" fill="#867878"/>
<path d="M44.6701 19.0945L44.6689 19.0938L42.8206 20.161L49.7025 24.1343L51.5501 23.0676L44.6701 19.0945Z" fill="#9E9393"/>
<path d="M24.0217 7.17578L22.1741 8.24249L24.4681 9.56686L29.0561 12.2159C29.0561 12.0466 29.062 11.8833 29.0709 11.7225C29.0729 11.686 29.0756 11.6499 29.078 11.6136C29.0879 11.4688 29.1013 11.3273 29.1183 11.1894C29.1198 11.1773 29.1208 11.165 29.1225 11.1528C29.1887 10.6439 29.2542 10.4364 29.3157 10.2324L24.0222 7.17603L24.0217 7.17578Z" fill="#9E9393"/>
<path d="M21.978 33.7617V38.2907L53.6812 55.9951V51.4661L21.978 33.7617Z" fill="#E6E6E6"/>
<path d="M21.978 25.9395V30.4685L46.8877 44.6732V40.1441L21.978 25.9395Z" fill="#E6E6E6"/>
<path d="M21.978 41.9961V46.5251L40.3 56.6125V52.0835L21.978 41.9961Z" fill="#E6E6E6"/>
<path d="M17.7714 94.3342V77.7891H12.0225V94.3342C12.0247 94.761 12.3085 95.1879 12.8716 95.5126C13.9978 96.1619 15.8187 96.1619 16.9381 95.5126C17.4966 95.1856 17.7759 94.761 17.7714 94.3342Z" fill="#005A9F"/>
<path d="M16.9247 76.6121C18.0509 77.2614 18.0554 78.3172 16.9383 78.9666C15.819 79.6159 13.998 79.6159 12.8718 78.9666C11.7457 78.3172 11.7389 77.2614 12.8582 76.6098C13.9776 75.9604 15.7985 75.9604 16.9247 76.6121Z" fill="#0078D4"/>
<path d="M16.1523 71.8795C15.4552 71.4777 14.3291 71.4777 13.6366 71.8795C13.2915 72.0816 13.1189 72.345 13.1189 72.6084V77.4491C13.1212 77.7124 13.296 77.9758 13.6434 78.1779C14.3404 78.5798 15.4666 78.5798 16.1591 78.1779C16.5042 77.9781 16.6768 77.7124 16.6745 77.4491V72.6084C16.6745 72.345 16.4997 72.0816 16.1523 71.8795Z" fill="#5EABDF"/>
<path d="M17.2922 67.6522C11.675 64.4099 7.13851 56.5517 7.15667 50.099C7.16803 46.8931 8.29873 44.6384 10.1242 43.5781L5.34936 46.3527C3.52388 47.413 2.39317 49.6676 2.38409 52.8735C2.36592 59.3263 6.90238 67.1845 12.5196 70.4268C15.3441 72.057 17.9052 72.2091 19.7534 71.1352L24.5282 68.3606C22.6778 69.4345 20.1189 69.2824 17.2922 67.6522Z" fill="#005A9F"/>
<path opacity="0.4" d="M13.9068 69.5692C19.5217 72.8115 24.0877 70.2095 24.1059 63.7568C24.124 57.304 19.5876 49.4458 13.9726 46.2035C8.35543 42.9613 3.78946 45.5633 3.77129 52.016C3.75313 58.4665 8.28958 66.3247 13.9068 69.5692Z" fill="#E1F0F0"/>
<path d="M12.6104 44.2991C19.5513 48.3065 25.1617 58.0242 25.139 66.0005C25.1163 73.979 19.4696 77.1963 12.5287 73.1889C5.58549 69.1792 -0.0226363 59.4637 6.86995e-05 51.4852C0.0205032 43.509 5.66723 40.2894 12.6104 44.2991ZM12.5173 70.4143C18.1323 73.6566 22.6982 71.0546 22.7164 64.6019C22.7346 58.1491 18.1981 50.2909 12.5832 47.0487C6.96595 43.8064 2.39998 46.4084 2.38182 52.8611C2.36366 59.3139 6.90238 67.1721 12.5173 70.4143Z" fill="#0078D4"/>
<path d="M17.3263 41.594C13.8342 39.5778 10.6692 39.3916 8.38277 40.7199L3.60791 43.4944C5.8943 42.1662 9.05937 42.3524 12.5537 44.3708C19.4946 48.3783 25.105 58.096 25.0823 66.0722C25.0709 70.0365 23.6723 72.8247 21.4154 74.1348L26.1903 71.3602C28.4472 70.0479 29.8458 67.2597 29.8571 63.2977C29.8776 55.3192 24.2672 45.6014 17.3263 41.594Z" fill="#005EB8"/>
</svg>
