<svg width="90" height="96" viewBox="0 0 90 96" fill="none" xmlns="http://www.w3.org/2000/svg">
<path d="M30.9997 0.345695L22.5946 5.23132C23.5179 4.69302 24.7955 4.76797 26.2026 5.57883L34.6077 0.693205C33.2006 -0.121066 31.923 -0.19261 30.9997 0.345695Z" fill="#EFEFEB"/>
<path d="M72.1493 96.0008L80.5543 91.1152L80.5986 75.0273L72.1936 79.9096L72.1493 96.0008Z" fill="#D2D2D2"/>
<path d="M79.9003 82.6188L88.3053 77.7332C89.2184 77.2017 89.784 76.0774 89.7908 74.4863L81.3857 79.372C81.3789 80.9664 80.8099 82.0873 79.9003 82.6188Z" fill="#C8C8C8"/>
<path d="M81.3824 79.3706L89.7874 74.485L89.8896 38.4492L81.4846 43.3348L81.3824 79.3706Z" fill="#D2D2D2"/>
<path d="M76.4287 34.574L84.8303 29.6917L34.6044 0.691406L26.2028 5.57703L76.4287 34.574Z" fill="#E6E6E6"/>
<path d="M26.2027 5.5698C23.4124 3.95829 21.1195 5.26317 21.1127 8.47256L21.0105 44.5083C21.0002 47.7143 23.2795 51.6596 26.0698 53.2711L58.1978 71.8188L72.1528 95.9914L72.1971 79.9002L76.2957 82.2646C79.0861 83.8762 81.379 82.5713 81.3858 79.3619L81.488 43.3261C81.4982 40.1201 79.2189 36.1748 76.4286 34.5633L26.2027 5.5698Z" fill="#F0F0F0"/>
<path d="M81.4846 43.3359L89.8896 38.4503C89.8998 35.2443 87.6206 31.299 84.8302 29.6875L76.4252 34.5731C79.2189 36.1846 81.4948 40.1299 81.4846 43.3359Z" fill="#DDDDDD"/>
<path d="M1.02686 34.9257L6.46288 31.7659C7.06003 31.4177 7.88854 31.4662 8.79638 31.9906L3.36036 35.1504C2.45252 34.626 1.624 34.5797 1.02686 34.9257Z" fill="#38A7FB"/>
<path d="M43.5256 81.8187L38.0896 84.9785C38.6801 84.6347 39.0459 83.9076 39.0503 82.8786L44.4863 79.7188C44.4841 80.7478 44.1162 81.4749 43.5256 81.8187Z" fill="#0059A0"/>
<path d="M39.1166 59.5678L44.5527 56.4102L44.4866 79.7165L39.0505 82.8741L39.1166 59.5678Z" fill="#0059A0"/>
<path d="M3.36035 35.1498L8.79638 31.9922L41.2803 50.7462L35.8443 53.906L3.36035 35.1498Z" fill="#3195E1"/>
<path d="M35.8443 53.9032C37.649 54.9455 39.1209 57.4949 39.1165 59.5706L39.0504 82.877C39.0438 84.9505 37.563 85.7966 35.7584 84.7544L14.9794 72.7586L5.89217 77.9324L5.92082 67.5253L3.27222 65.996C1.46535 64.9538 -0.00658831 62.4021 2.21791e-05 60.3286L0.0661273 37.0223C0.0727378 34.9488 1.55349 34.1026 3.36035 35.1471L35.8443 53.9032Z" fill="#0077D6"/>
<path d="M35.8442 53.902L41.2803 50.7422C43.0849 51.7844 44.5569 54.3339 44.5525 56.4096L39.1164 59.5694C39.123 57.4937 37.6511 54.9443 35.8442 53.902Z" fill="#005CBA"/>
</svg>
