<svg width="114" height="96" viewBox="0 0 114 96" fill="none" xmlns="http://www.w3.org/2000/svg">
<path d="M23.6951 40.7363H8.18579V53.0975H23.6951V40.7363Z" fill="#B4B4B4"/>
<path d="M23.2423 50.479V50.1616C23.2461 49.0064 22.4252 47.5864 21.4203 47.006L12.3856 41.7899C11.3807 41.2095 10.5561 41.6791 10.5524 42.8343V43.1517C10.5486 44.3069 11.3694 45.7269 12.3743 46.3073L21.4091 51.5234C22.414 52.1038 23.2385 51.6342 23.2423 50.479Z" fill="#414042"/>
<path d="M1.71313 32.1941L41.4283 9.11328L69.9806 25.5993L30.2655 48.6782L1.71313 32.1941Z" fill="#B4B6B7"/>
<path d="M22.3163 50.6028V50.2854C22.32 49.1302 21.4992 47.7102 20.4943 47.1298L11.4596 41.9137C10.4547 41.3333 9.6301 41.8048 9.62634 42.9581V43.2755C9.62259 44.4307 10.4434 45.8507 11.4483 46.4311L20.483 51.6472C21.4879 52.2276 22.3125 51.758 22.3163 50.6028ZM1.71299 32.1953L30.2653 48.6794L30.2033 70.5525L1.651 54.0683L1.71299 32.1953Z" fill="#F0F0F0"/>
<path d="M30.2655 48.6785L69.9806 25.5996L69.9186 47.4726L30.2035 70.5515L30.2655 48.6785Z" fill="#B4B4B4"/>
<path d="M32.0029 41.5437L71.7181 18.4648L71.6955 26.6675L31.9803 49.7482L32.0029 41.5437Z" fill="#9D9D9D"/>
<path d="M0.0224609 23.0789L39.7376 0L71.7179 18.4639L32.0027 41.5428L0.0224609 23.0789Z" fill="#DCDCDC"/>
<path d="M32.0028 41.542L31.9803 49.7465L0 31.2826L0.0225398 23.0781L32.0028 41.542Z" fill="#CCCCCC"/>
<path d="M65.9567 66.1816H50.4474V78.5428H65.9567V66.1816Z" fill="#B4B4B4"/>
<path d="M65.504 75.9243V75.6069C65.5078 74.4517 64.687 73.0317 63.6821 72.4513L54.6473 67.2353C53.6424 66.6549 52.8179 67.1244 52.8141 68.2796V68.597C52.8103 69.7522 53.6312 71.1722 54.6361 71.7526L63.6708 76.9687C64.6757 77.5491 65.5003 77.0795 65.504 75.9243Z" fill="#414042"/>
<path d="M43.9747 57.6374L83.6899 34.5566L112.242 51.0426L72.5271 74.1215L43.9747 57.6374Z" fill="#B4B6B7"/>
<path d="M64.578 76.0462V75.7288C64.5817 74.5736 63.7609 73.1536 62.756 72.5732L53.7213 67.3571C52.7164 66.7767 51.8918 67.2482 51.8881 68.4014V68.7189C51.8843 69.874 52.7051 71.2941 53.71 71.8745L62.7447 77.0905C63.7496 77.6709 64.5742 77.2014 64.578 76.0462ZM43.9747 57.6387L72.527 74.1228L72.465 95.9958L43.9127 79.5117L43.9747 57.6387Z" fill="#F0F0F0"/>
<path d="M72.527 74.1258L112.242 51.0469L112.18 72.9199L72.465 95.9988L72.527 74.1258Z" fill="#B4B4B4"/>
<path d="M74.2645 66.9871L113.98 43.9082L113.957 52.1108L74.2419 75.1916L74.2645 66.9871Z" fill="#005A9F"/>
<path d="M42.2842 48.5223L81.9993 25.4434L113.98 43.9072L74.2644 66.9861L42.2842 48.5223Z" fill="#1B92ED"/>
<path d="M74.2646 66.9854L74.2421 75.1899L42.2618 56.726L42.2844 48.5215L74.2646 66.9854Z" fill="#0078D4"/>
</svg>
