<svg width="72" height="96" viewBox="0 0 72 96" fill="none" xmlns="http://www.w3.org/2000/svg">
<path d="M18.1123 3.91271L65.2013 31.0993L66.3304 30.4476L19.2262 3.26953L18.1123 3.91271Z" fill="#EFEFEB"/>
<path d="M20.3558 2.61719L19.2262 3.26951L66.3304 30.4476L67.46 29.7952L20.3558 2.61719Z" fill="#E6E6E6"/>
<path d="M68.5896 29.1429L21.4855 1.96484L20.3558 2.61688L67.46 29.7949L68.5896 29.1429Z" fill="#EFEFEB"/>
<path d="M69.7193 28.4906L22.6151 1.3125L21.4855 1.96483L68.5896 29.1429L69.7193 28.4906Z" fill="#E6E6E6"/>
<path d="M70.8489 27.8382L23.7447 0.660156L22.6151 1.3122L69.7193 28.4902L70.8489 27.8382Z" fill="#EFEFEB"/>
<path d="M24.8741 0.00976562L23.7448 0.661805L70.8489 27.8399L71.9774 27.1881L24.8741 0.00976562Z" fill="#E6E6E6"/>
<path d="M71.9774 92.0883L65.2013 96.0006V31.0995L71.9774 27.1875V92.0883Z" fill="#D2D2D2"/>
<path d="M18.1123 3.91211V68.8132L65.2013 95.9999V31.0987L18.1123 3.91211Z" fill="#FAF9F0"/>
<path d="M34.749 8.75155C34.8048 8.73668 34.8614 8.72381 34.9183 8.71094C34.8617 8.72381 34.8048 8.73639 34.749 8.75155Z" fill="#D3D1E9"/>
<path d="M34.2014 8.94403C34.2146 8.93832 34.228 8.93345 34.2412 8.92773C34.228 8.93345 34.2146 8.93832 34.2014 8.94403Z" fill="#D3D1E9"/>
<path d="M34.4714 8.83791C34.5075 8.82533 34.5444 8.81446 34.581 8.80273C34.5444 8.81475 34.5075 8.82533 34.4714 8.83791Z" fill="#D3D1E9"/>
<path d="M66.3306 30.4473L65.2013 31.0993V96.0004L66.3306 95.3484V30.4473Z" fill="#D2D2D2"/>
<path d="M66.3306 30.447V95.3481L67.4599 94.6961V29.7949L66.3306 30.447Z" fill="#C8C8C8"/>
<path d="M67.46 29.7966V94.6977L68.5896 94.0457V29.1445L67.46 29.7966Z" fill="#D2D2D2"/>
<path d="M68.5896 29.1442V94.0454L69.7189 93.3933V28.4922L68.5896 29.1442Z" fill="#C8C8C8"/>
<path d="M69.719 93.393L70.8486 92.7407V27.8398L69.719 28.4919V93.393Z" fill="#D2D2D2"/>
<path d="M71.9774 92.0884V27.1875L70.8486 27.8393V92.7401L71.9774 92.0884Z" fill="#C8C8C8"/>
<path d="M47.4835 23.3402C47.4835 22.0933 47.2759 20.8029 46.861 19.4694C46.4454 18.1356 45.8755 16.8486 45.1494 15.6049C44.4227 14.362 43.5779 13.2281 42.613 12.1994C41.6481 11.1719 40.616 10.3408 39.5164 9.70595C38.4165 9.07078 37.3846 8.71044 36.4197 8.62408C35.4548 8.53857 34.6095 8.69643 33.8834 9.10081C33.1567 9.50576 32.5867 10.1344 32.1718 10.9889C31.7565 11.8431 31.5492 12.8941 31.5492 14.141L23.5823 9.54094V21.6915L55.4504 40.0904V27.9399L47.4835 23.3402ZM39.5164 23.2587C37.316 21.9883 35.5323 18.9357 35.5323 16.4408C35.5323 13.9456 37.316 12.953 39.5164 14.223C41.7167 15.4931 43.5004 18.546 43.5004 21.0409C43.5004 23.5361 41.7167 24.529 39.5164 23.2587Z" fill="#B7AEAE"/>
<path d="M57.5902 26.7051L55.4504 27.9405V40.0913L57.5902 38.8559V26.7051Z" fill="#867878"/>
<path d="M56.3999 18.1939C56.3999 16.9471 56.1926 15.6567 55.7776 14.3232C55.3621 12.9893 54.7921 11.7024 54.066 10.4587C53.3393 9.21581 52.4945 8.08189 51.5296 7.05321C50.5647 6.02568 49.5326 5.19461 48.433 4.55973C47.3331 3.92456 46.3013 3.56422 45.3364 3.47757C44.3718 3.39206 43.5261 3.55021 42.8 3.9543L33.9354 9.07453C34.6501 8.69103 35.4777 8.5406 36.4198 8.62411C37.3844 8.71048 38.4162 9.0711 39.5164 9.70598C40.616 10.3409 41.6481 11.1722 42.613 12.1995C43.5776 13.2281 44.4227 14.3621 45.1494 15.6049C45.8755 16.8487 46.4457 18.1356 46.861 19.4694C47.2759 20.803 47.4833 22.0933 47.4833 23.3402L56.3999 18.1939Z" fill="#9E9393"/>
<path d="M41.6658 21.053C39.4655 19.7827 37.6818 16.7304 37.6818 14.2352C37.6818 14.0381 37.6967 13.854 37.7184 13.6758C36.4223 13.6729 35.5323 14.6807 35.5323 16.4412C35.5323 18.9361 37.316 21.9887 39.5164 23.2591C41.5428 24.429 43.2121 23.6757 43.4638 21.6009C42.9233 21.5998 42.3136 21.4268 41.6658 21.053Z" fill="#867878"/>
<path d="M49.6247 22.1044L49.6232 22.1035L47.4835 23.339L55.4504 27.9387L57.5893 26.7038L49.6247 22.1044Z" fill="#9E9393"/>
<path d="M25.7211 8.30664L23.5823 9.54151L26.2379 11.0747L31.5492 14.1413C31.5492 13.9454 31.556 13.7563 31.5663 13.5701C31.5686 13.5278 31.5718 13.4861 31.5746 13.444C31.5861 13.2764 31.6015 13.1126 31.6212 12.953C31.623 12.939 31.6241 12.9247 31.6261 12.9107C31.7027 12.3215 31.7785 12.0813 31.8497 11.8451L25.7217 8.30693L25.7211 8.30664Z" fill="#9E9393"/>
<path d="M23.3553 39.084V44.327L60.0564 64.8224V59.5794L23.3553 39.084Z" fill="#E6E6E6"/>
<path d="M23.3553 30.0273V35.2704L52.1919 51.7143V46.4713L23.3553 30.0273Z" fill="#E6E6E6"/>
<path d="M23.3553 48.6152V53.8582L44.5657 65.5359V60.2929L23.3553 48.6152Z" fill="#E6E6E6"/>
<path d="M8.33886 51.2306L0.813232 55.6029C1.26701 55.3395 1.89697 55.3751 2.59276 55.7773L10.1184 51.405C9.4226 51.0046 8.79264 50.9672 8.33886 51.2306Z" fill="#005CBA"/>
<path d="M8.33886 51.2306L0.813232 55.6029C1.26701 55.3395 1.89697 55.3751 2.59276 55.7773L10.1184 51.405C9.4226 51.0046 8.79264 50.9672 8.33886 51.2306Z" fill="#005CBA"/>
<path d="M23.4916 87.6261L31.0172 83.2537C31.4656 82.9922 31.7432 82.4387 31.7468 81.6504L24.2212 86.0227C24.2176 86.811 23.94 87.3645 23.4916 87.6261Z" fill="#0059A0"/>
<path d="M23.4916 87.6261L31.0172 83.2537C31.4656 82.9922 31.7432 82.4387 31.7468 81.6504L24.2212 86.0227C24.2176 86.811 23.94 87.3645 23.4916 87.6261Z" fill="#0059A0"/>
<path d="M24.2212 86.0227L31.745 81.6487L31.7878 66.7949L24.2621 71.1672L24.2212 86.0227Z" fill="#0059A0"/>
<path d="M24.2212 86.0227L31.745 81.6487L31.7878 66.7949L24.2621 71.1672L24.2212 86.0227Z" fill="#0059A0"/>
<path d="M24.2621 71.1683L31.7877 66.796C31.7931 65.2104 30.6773 63.2797 29.2964 62.4824L21.7708 66.8547C23.1517 67.652 24.2674 69.5845 24.2621 71.1683Z" fill="#005CBA"/>
<path d="M24.2621 71.1703L31.7877 66.798C31.7931 65.2124 30.6773 63.2816 29.2964 62.4844L21.7708 66.8567C23.1517 67.6539 24.2674 69.5865 24.2621 71.1703Z" fill="#005CBA"/>
<path d="M24.2621 71.1683L31.7877 66.796C31.7931 65.2104 30.6773 63.2797 29.2964 62.4824L21.7708 66.8547C23.1517 67.652 24.2674 69.5845 24.2621 71.1683Z" fill="#005CBA"/>
<path d="M21.7708 66.8545L29.2964 62.4822L10.1184 51.4082L2.59277 55.7823L21.7708 66.8545Z" fill="#005CBA"/>
<path d="M21.7708 66.8545L29.2964 62.4822L10.1184 51.4082L2.59277 55.7823L21.7708 66.8545Z" fill="#005CBA"/>
<path d="M8.97771 56.308C10.2198 56.308 11.227 55.7012 11.227 54.9538C11.227 54.9467 11.2253 54.9413 11.2253 54.9342H11.227L11.2448 48.8055C11.2448 48.7984 11.2448 48.7877 11.2448 48.777C11.2448 48.7735 11.2448 48.7699 11.2448 48.7663C11.2448 48.7574 11.2448 48.745 11.2448 48.7343C11.2448 48.7272 11.2448 48.7219 11.2448 48.7147C11.2448 48.6969 11.2448 48.6774 11.2448 48.656C11.2448 48.6525 11.2448 48.6471 11.2448 48.6436C11.2448 48.624 11.2448 48.6044 11.2448 48.5831C11.2448 48.5742 11.2448 48.5653 11.2448 48.5564C11.2448 48.5368 11.2448 48.5137 11.2448 48.4923C11.2448 48.4834 11.2448 48.4745 11.2448 48.4656C11.2448 48.4336 11.2466 48.4015 11.2466 48.366C11.2466 48.3588 11.2466 48.3499 11.2466 48.3428C11.2466 48.3143 11.2484 48.2841 11.2502 48.2538C11.2502 48.2414 11.252 48.2289 11.252 48.2165C11.2537 48.1844 11.2555 48.1524 11.2555 48.1186C11.2555 48.1097 11.2555 48.1008 11.2573 48.0919C11.2591 48.0492 11.2626 48.0047 11.2644 47.9602C11.2644 47.9495 11.2662 47.9406 11.2662 47.93C11.268 47.8944 11.2715 47.857 11.2751 47.8179C11.2769 47.8036 11.2769 47.7894 11.2786 47.7751C11.2822 47.7342 11.2858 47.6933 11.2893 47.6506C11.2893 47.6417 11.2911 47.6346 11.2911 47.6257C11.2964 47.5758 11.3018 47.5242 11.3071 47.4726C11.3089 47.4584 11.3107 47.4442 11.3125 47.4299C11.3178 47.3908 11.3214 47.3498 11.3285 47.3089C11.3303 47.2929 11.332 47.2769 11.3356 47.2591C11.3427 47.2075 11.3498 47.1559 11.3587 47.1025C11.3587 47.0989 11.3605 47.0954 11.3605 47.0918C11.3694 47.0366 11.3783 46.9797 11.389 46.9228C11.3925 46.9067 11.3943 46.8907 11.3979 46.8747C11.405 46.832 11.4139 46.7875 11.4228 46.7448C11.4263 46.7288 11.4299 46.711 11.4335 46.695C11.4459 46.638 11.4584 46.5793 11.4708 46.5206C11.4726 46.5152 11.4744 46.5081 11.4744 46.5028C11.4869 46.4494 11.4993 46.3978 11.5135 46.3444C11.5189 46.3266 11.5224 46.3088 11.5278 46.291C11.5402 46.2465 11.5527 46.202 11.5652 46.1576C11.5705 46.1415 11.5741 46.1255 11.5794 46.1095C11.5972 46.0508 11.615 45.9938 11.6328 45.9351C11.6363 45.9244 11.6399 45.9138 11.6435 45.9031C11.6595 45.855 11.6755 45.807 11.6933 45.7589C11.7004 45.7411 11.7057 45.7234 11.7129 45.7056C11.7307 45.6611 11.7467 45.6166 11.7662 45.5721C11.7716 45.5579 11.7769 45.5454 11.7822 45.5312C11.8054 45.4742 11.8303 45.4191 11.857 45.3639C11.8623 45.3514 11.8694 45.339 11.8748 45.3265C11.8961 45.2838 11.9175 45.2393 11.9388 45.1966C11.9477 45.1806 11.9566 45.1646 11.9655 45.1468C11.9673 45.1432 11.9691 45.1397 11.9727 45.1343C12.7129 45.1753 13.6223 45.4653 14.7381 46.1095C20.9451 49.6935 20.7048 56.7885 20.6924 57.1622L20.6746 63.0079L20.6763 63.0044C20.6763 63.0097 20.6746 63.015 20.6746 63.0204C20.6746 63.7678 21.6818 64.3746 22.9239 64.3746C24.166 64.3746 25.1732 63.7678 25.1732 63.0204C25.1732 63.0079 25.1714 62.9955 25.1697 62.983H25.1732L25.1928 56.2955C25.207 55.8364 25.4597 47.1007 17.2525 42.3618C14.4498 40.7442 12.6293 40.7282 11.4459 41.4276C11.4513 41.424 11.4566 41.4204 11.4637 41.4169C10.711 41.8547 9.70732 42.4366 8.95458 42.8743C8.94925 42.8779 8.9439 42.8814 8.93678 42.885C8.87272 42.9224 8.81044 42.9633 8.74993 43.0042C8.74104 43.0096 8.73392 43.0167 8.72502 43.022C8.67341 43.0594 8.62181 43.0985 8.57198 43.1377C8.55419 43.1519 8.53639 43.1662 8.5186 43.1822C8.47767 43.216 8.43674 43.2516 8.39759 43.289C8.38157 43.3032 8.36556 43.3174 8.35132 43.3317C8.29971 43.3815 8.24811 43.4331 8.19828 43.4883C8.19472 43.4918 8.19294 43.4954 8.18938 43.4989C8.14311 43.5505 8.09862 43.6022 8.05591 43.6555C8.04168 43.6733 8.02922 43.6911 8.01499 43.7071C7.98296 43.7499 7.95093 43.7926 7.9189 43.8353C7.90644 43.8531 7.8922 43.8709 7.87974 43.8887C7.84059 43.9456 7.80145 44.0043 7.76408 44.0648C7.7623 44.0666 7.76051 44.0702 7.75873 44.0719C7.71958 44.1342 7.68221 44.1983 7.64662 44.2624C7.63595 44.2819 7.62527 44.2997 7.61459 44.3193C7.58968 44.3673 7.56477 44.4136 7.53986 44.4617C7.52918 44.483 7.51849 44.5026 7.5096 44.5239C7.48112 44.5827 7.45444 44.6414 7.42774 44.7001C7.42418 44.7072 7.42063 44.7161 7.41707 44.7233C7.38682 44.7909 7.36012 44.8585 7.33342 44.9261C7.32631 44.9457 7.31741 44.9671 7.31029 44.9866C7.29071 45.0365 7.27292 45.0881 7.25512 45.1379C7.24801 45.1592 7.23911 45.1806 7.23199 45.2037C7.21241 45.2607 7.19285 45.3194 7.17505 45.3763C7.17149 45.3888 7.16794 45.3995 7.16438 45.4119C7.14302 45.4813 7.12344 45.5507 7.10387 45.6201C7.09853 45.6397 7.09319 45.6575 7.08785 45.6771C7.07361 45.7287 7.05938 45.7803 7.04692 45.8319C7.04158 45.8533 7.03625 45.8764 7.03091 45.8977C7.01846 45.9529 7.00422 46.0081 6.99354 46.0615C6.98998 46.0757 6.98642 46.0899 6.98286 46.1059C6.96863 46.1736 6.95439 46.2412 6.94194 46.3088C6.93838 46.3266 6.93481 46.3426 6.93303 46.3604C6.92413 46.412 6.91346 46.4619 6.90634 46.5135C6.90278 46.5348 6.89923 46.5544 6.89567 46.5757C6.88677 46.6274 6.87965 46.6772 6.87253 46.7288C6.87075 46.743 6.86719 46.759 6.86541 46.7733C6.85651 46.8373 6.84762 46.8996 6.8405 46.9619C6.83872 46.9761 6.83694 46.9904 6.83516 47.0064C6.82982 47.0544 6.82449 47.1025 6.81915 47.1488C6.81737 47.1683 6.81558 47.1861 6.8138 47.2057C6.80847 47.2502 6.8049 47.2947 6.80135 47.3374C6.79957 47.3516 6.79778 47.3676 6.79778 47.3819C6.79244 47.437 6.78889 47.4922 6.78355 47.5456C6.78355 47.5563 6.78177 47.5687 6.78177 47.5794C6.77821 47.6221 6.77644 47.663 6.77288 47.704C6.7711 47.72 6.7711 47.736 6.76932 47.752C6.76754 47.7876 6.76576 47.8232 6.76398 47.857C6.76398 47.8712 6.7622 47.8837 6.7622 47.8979C6.76042 47.9424 6.75864 47.9869 6.75686 48.0278C6.75686 48.0332 6.75686 48.0385 6.75686 48.0439C6.75508 48.0794 6.75507 48.115 6.7533 48.1471C6.7533 48.1595 6.7533 48.1702 6.7533 48.1827C6.7533 48.2094 6.7533 48.2343 6.75152 48.2592C6.75152 48.2681 6.75152 48.2788 6.75152 48.2877C6.75152 48.3197 6.75152 48.3482 6.75152 48.3749C6.75152 48.3784 6.75152 48.382 6.75152 48.3855C6.75152 48.4087 6.75152 48.43 6.75152 48.4496C6.75152 48.4567 6.75152 48.4638 6.75152 48.4709C6.75152 48.4852 6.75152 48.4976 6.75152 48.5083C6.75152 48.5137 6.75152 48.519 6.75152 48.5243C6.75152 48.5368 6.75152 48.5492 6.75152 48.5564L6.73194 54.9556C6.73194 54.9591 6.73194 54.6886 6.73194 54.9645C6.72838 55.6389 7.91889 56.308 8.97771 56.308ZM10.695 42.0415C10.6985 42.0379 10.7003 42.0344 10.7039 42.0308C10.7021 42.0344 10.6985 42.0379 10.695 42.0415ZM10.5206 42.2515C10.5348 42.2337 10.5473 42.2159 10.5615 42.1999C10.5473 42.2159 10.5348 42.2337 10.5206 42.2515ZM10.3853 42.433C10.3978 42.4152 10.4102 42.3974 10.4245 42.3796C10.412 42.3974 10.3996 42.4152 10.3853 42.433ZM10.9032 41.8315C10.8871 41.8458 10.8711 41.86 10.8569 41.8742C10.8729 41.86 10.8871 41.8475 10.9032 41.8315ZM11.2537 41.5486C11.2448 41.5539 11.2377 41.561 11.2288 41.5664C11.2377 41.5593 11.2466 41.5539 11.2537 41.5486ZM11.0776 41.682C11.0598 41.6963 11.042 41.7105 11.0242 41.7265C11.042 41.7105 11.0598 41.6963 11.0776 41.682Z" fill="#DCDCDC"/>
<path d="M8.74452 50.2742L8.74097 56.2979C9.34601 56.3708 11.2501 56.0487 11.2501 54.9419L11.2537 48.8167C11.2483 48.6192 11.1949 46.6226 11.9583 45.1794C11.9637 45.1687 11.9708 45.1562 11.9762 45.1456L11.9352 45.1438C8.60039 44.9979 8.73562 49.9592 8.74452 50.2742Z" fill="#B4B4B4"/>
<path d="M21.6711 87.4505C23.0503 88.2477 24.1732 87.6071 24.1785 86.0215L24.2212 71.1678C24.2265 69.5822 23.1108 67.6496 21.7316 66.8524L2.55008 55.7784C1.16916 54.9812 0.00535767 55.6218 1.9078e-05 57.2074V72.0611C-0.00531951 73.6467 1.11045 75.5792 2.49136 76.3765L21.6711 87.4505Z" fill="#0077D6"/>
<path d="M9.42444 74.8569L12.9728 72.7891L13.6971 77.3233L9.42444 74.8569Z" fill="#005CBA"/>
<path d="M10.001 70.0228C9.1326 68.5174 9.13617 66.8891 10.0081 66.3837C10.8819 65.8801 12.2948 66.6916 13.1632 68.197C14.0317 69.7025 14.0281 71.3308 13.1561 71.8362C13.0654 71.8878 12.9693 71.9234 12.8678 71.9483L12.9711 72.79L9.42445 74.8578L10.3124 70.4998C10.2039 70.3485 10.0989 70.1919 10.001 70.0228Z" fill="#0059A0"/>
</svg>
