<svg width="544" height="278" viewBox="0 0 544 278" fill="none" xmlns="http://www.w3.org/2000/svg">
<path d="M277.783 30.5244L285.418 34.8575C285.418 34.8575 274.007 38.5145 274.007 55.6931C274.007 56.4067 274.294 60.5178 277.292 62.0373C277.285 62.0475 277.278 62.0544 277.278 62.0544L269.653 57.7042C266.659 56.1847 266.375 52.0736 266.375 51.3634C266.372 34.1814 277.783 30.5244 277.783 30.5244Z" fill="#0078D4"/>
<path d="M277.783 30.5244L285.418 34.8575C285.418 34.8575 274.007 38.5145 274.007 55.6931C274.007 56.4067 274.294 60.5178 277.292 62.0373C277.285 62.0475 277.278 62.0544 277.278 62.0544L269.653 57.7042C266.659 56.1847 266.375 52.0736 266.375 51.3634C266.372 34.1814 277.783 30.5244 277.783 30.5244Z" fill="url(#paint0_linear_334_116282)"/>
<path d="M316.6 8.35436L308.829 4.03154C315.006 -0.557611 319.55 -0.789803 322.552 1.15308L329.62 5.07639C326.629 3.59448 322.313 4.11007 316.6 8.35436Z" fill="#0078D4"/>
<path d="M316.6 8.35436L308.829 4.03154C315.006 -0.557611 319.55 -0.789803 322.552 1.15308L329.62 5.07639C326.629 3.59448 322.313 4.11007 316.6 8.35436Z" fill="url(#paint1_linear_334_116282)"/>
<path d="M285.467 34.8927L277.733 30.5528C277.733 18.9911 291.008 0.887207 301.839 0.887207C304.387 0.887207 306.138 1.6589 307.262 2.43741L313.927 6.21049C312.851 5.68806 311.427 5.28173 309.573 5.28173C298.759 5.27831 285.508 23.3276 285.467 34.8927Z" fill="#0078D4"/>
<path d="M285.467 34.8927L277.733 30.5528C277.733 18.9911 291.008 0.887207 301.839 0.887207C304.387 0.887207 306.138 1.6589 307.262 2.43741L313.927 6.21049C312.851 5.68806 311.427 5.28173 309.573 5.28173C298.759 5.27831 285.508 23.3276 285.467 34.8927Z" fill="url(#paint2_linear_334_116282)"/>
<path d="M316.61 8.35428C316.61 8.35428 314.705 5.20948 309.559 5.20948C298.728 5.20948 285.453 23.3134 285.453 34.8751C285.453 34.8751 274.041 38.5321 274.041 55.7106C274.041 56.8818 274.813 67.2757 287.198 60.1257C287.198 60.1257 314.743 44.2173 320.95 40.632C327.158 37.0467 334.793 23.8222 334.793 15.6273C334.793 7.43235 328.968 -0.82403 316.61 8.35428Z" fill="#C5E4EC"/>
<path d="M25.7216 171.462L42.9361 181.231C42.9361 181.231 17.2068 189.477 17.2068 228.209C17.2068 229.819 17.8535 239.088 24.613 242.514C24.5976 242.537 24.5822 242.552 24.5822 242.552L7.39082 232.744C0.638982 229.318 1.72739e-06 220.049 1.72739e-06 218.447C-0.00769706 179.707 25.7216 171.462 25.7216 171.462Z" fill="#0078D4"/>
<path d="M25.7216 171.462L42.9361 181.231C42.9361 181.231 17.2068 189.477 17.2068 228.209C17.2068 229.819 17.8535 239.088 24.613 242.514C24.5976 242.537 24.5822 242.552 24.5822 242.552L7.39082 232.744C0.638982 229.318 1.72739e-06 220.049 1.72739e-06 218.447C-0.00769706 179.707 25.7216 171.462 25.7216 171.462Z" fill="url(#paint3_linear_334_116282)"/>
<path d="M113.241 121.473L95.719 111.726C109.646 101.379 119.893 100.855 126.66 105.236L142.597 114.082C135.853 110.741 126.121 111.903 113.241 121.473Z" fill="#0078D4"/>
<path d="M113.241 121.473L95.719 111.726C109.646 101.379 119.893 100.855 126.66 105.236L142.597 114.082C135.853 110.741 126.121 111.903 113.241 121.473Z" fill="url(#paint4_linear_334_116282)"/>
<path d="M43.0436 181.308L25.6058 171.523C25.6058 145.455 55.5387 104.636 79.9593 104.636C85.7025 104.636 89.652 106.376 92.1849 108.131L107.213 116.638C104.788 115.46 101.577 114.544 97.397 114.544C73.015 114.536 43.1359 155.232 43.0436 181.308Z" fill="#0078D4"/>
<path d="M43.0436 181.308L25.6058 171.523C25.6058 145.455 55.5387 104.636 79.9593 104.636C85.7025 104.636 89.652 106.376 92.1849 108.131L107.213 116.638C104.788 115.46 101.577 114.544 97.397 114.544C73.015 114.536 43.1359 155.232 43.0436 181.308Z" fill="url(#paint5_linear_334_116282)"/>
<path d="M113.265 121.473C113.265 121.473 108.969 114.382 97.3667 114.382C72.9461 114.382 43.0133 155.201 43.0133 181.269C43.0133 181.269 17.2839 189.515 17.2839 228.247C17.2839 230.888 19.0238 254.323 46.9473 238.202C46.9473 238.202 109.053 202.333 123.05 194.25C137.046 186.166 154.261 156.349 154.261 137.871C154.261 119.394 141.127 100.779 113.265 121.473Z" fill="#C5E4EC"/>
<g clip-path="url(#clip0_334_116282)">
<path d="M308.623 90.1847C308.349 90.132 308.075 90.1004 307.78 90.0793C307.717 90.0793 307.665 90.0688 307.601 90.0688C307.327 90.0583 307.043 90.0583 306.748 90.0899C306.716 90.0899 306.674 90.1004 306.643 90.1004C306.337 90.132 306.032 90.1742 305.716 90.2479C305.684 90.2584 305.652 90.2584 305.621 90.269C305.294 90.3427 304.968 90.4375 304.63 90.5429C304.609 90.5534 304.588 90.5534 304.557 90.564C304.209 90.6799 303.851 90.8274 303.493 90.9959C303.471 91.0065 303.44 91.017 303.419 91.0275C303.05 91.1961 302.681 91.3857 302.302 91.607L265.175 70.0304C265.291 69.9566 265.417 69.8934 265.533 69.8302C265.691 69.7459 265.839 69.6722 265.997 69.5879C266.092 69.5352 266.197 69.4931 266.292 69.4509C266.313 69.4404 266.345 69.4298 266.366 69.4193C266.397 69.4088 266.418 69.3877 266.45 69.3772C266.597 69.314 266.755 69.2507 266.903 69.1875C267.05 69.1243 267.208 69.0716 267.356 69.019C267.377 69.0084 267.409 68.9979 267.43 68.9979C267.451 68.9874 267.472 68.9874 267.503 68.9768C267.609 68.9452 267.704 68.9031 267.809 68.882C267.967 68.8399 268.115 68.7872 268.273 68.7556C268.346 68.7345 268.42 68.724 268.494 68.7029C268.525 68.6924 268.557 68.6924 268.589 68.6818C268.631 68.6713 268.683 68.6608 268.736 68.6502C268.905 68.6186 269.063 68.587 269.231 68.5659C269.337 68.5554 269.431 68.5449 269.526 68.5343C269.558 68.5343 269.6 68.5238 269.632 68.5238C269.663 68.5238 269.695 68.5133 269.726 68.5133C269.906 68.5027 270.085 68.4922 270.253 68.4922C270.327 68.4922 270.401 68.5027 270.485 68.5027C270.548 68.5027 270.601 68.5027 270.664 68.5133C270.727 68.5133 270.791 68.5133 270.843 68.5238C271.064 68.5449 271.275 68.5765 271.486 68.6186H271.496C271.539 68.6292 271.591 68.6502 271.633 68.6608C271.855 68.7134 272.065 68.7661 272.265 68.8399C272.287 68.8504 272.297 68.8609 272.318 68.8609C272.613 68.9663 272.908 69.1032 273.182 69.2613L310.298 90.8168C310.025 90.6588 309.74 90.5324 309.435 90.4165C309.213 90.3322 308.982 90.269 308.75 90.2163C308.708 90.2058 308.665 90.1952 308.623 90.1847Z" fill="#005DB7"/>
<path d="M173.706 269.614C173.706 270.046 173.727 270.457 173.769 270.847C173.769 270.879 173.78 270.921 173.78 270.952C173.812 271.31 173.864 271.669 173.938 272.006C173.949 272.048 173.959 272.101 173.97 272.143C174.033 272.469 174.117 272.775 174.212 273.08C174.233 273.133 174.254 273.196 174.265 273.249C174.359 273.523 174.465 273.797 174.581 274.05C174.591 274.081 174.602 274.113 174.623 274.145C174.76 274.44 174.907 274.703 175.076 274.966C175.097 274.998 175.118 275.029 175.139 275.061C175.276 275.261 175.423 275.461 175.571 275.641C175.624 275.704 175.687 275.767 175.74 275.83C175.877 275.978 176.013 276.115 176.161 276.241C176.224 276.294 176.277 276.346 176.34 276.399C176.551 276.568 176.762 276.715 176.993 276.852L139.866 255.276C139.635 255.139 139.424 254.991 139.213 254.822C139.15 254.77 139.087 254.717 139.034 254.664C138.887 254.538 138.75 254.401 138.613 254.254C138.549 254.19 138.497 254.127 138.444 254.064C138.286 253.885 138.149 253.695 138.012 253.484C137.991 253.453 137.97 253.421 137.949 253.39C137.949 253.379 137.938 253.379 137.938 253.369C137.78 253.126 137.643 252.873 137.517 252.599C137.517 252.589 137.506 252.578 137.506 252.568C137.496 252.536 137.485 252.505 137.464 252.484C137.391 252.315 137.306 252.146 137.243 251.957C137.211 251.862 137.18 251.767 137.148 251.672C137.127 251.62 137.106 251.567 137.096 251.504C137.074 251.451 137.064 251.409 137.043 251.356C136.99 251.167 136.937 250.977 136.895 250.787C136.874 250.714 136.864 250.65 136.853 250.577C136.843 250.535 136.832 250.492 136.822 250.44C136.811 250.377 136.79 250.303 136.779 250.24C136.748 250.06 136.727 249.881 136.695 249.702C136.685 249.597 136.674 249.502 136.664 249.397C136.664 249.365 136.653 249.323 136.653 249.291C136.653 249.249 136.642 249.207 136.642 249.165C136.632 248.986 136.621 248.817 136.611 248.638C136.6 248.459 136.6 248.28 136.6 248.09C136.6 248.08 136.6 248.069 136.6 248.059L173.706 269.614Z" fill="#004E99"/>
<path d="M173.443 178.935L136.316 157.358L136.579 248.037L173.706 269.614L173.443 178.935Z" fill="#004E99"/>
<path d="M182.44 161.057C182.398 161.088 182.366 161.12 182.324 161.152C181.997 161.415 181.681 161.7 181.365 161.984C181.323 162.016 181.292 162.058 181.249 162.089C180.933 162.384 180.617 162.7 180.322 163.016C180.301 163.048 180.27 163.069 180.249 163.101C179.922 163.448 179.606 163.807 179.3 164.175L179.29 164.186C178.974 164.565 178.668 164.955 178.373 165.355C178.373 165.355 178.373 165.355 178.373 165.366C178.099 165.735 177.847 166.103 177.594 166.493C177.436 166.725 177.288 166.967 177.141 167.21C177.014 167.41 176.888 167.61 176.761 167.821C176.709 167.915 176.656 168.021 176.593 168.116C176.393 168.463 176.203 168.811 176.024 169.159C176.003 169.201 175.982 169.232 175.961 169.275C175.739 169.707 175.539 170.138 175.35 170.581C175.339 170.602 175.329 170.623 175.318 170.644C175.128 171.076 174.96 171.508 174.791 171.94C174.781 171.972 174.77 171.993 174.76 172.024C174.591 172.467 174.444 172.92 174.307 173.362C174.296 173.394 174.296 173.415 174.286 173.447C174.159 173.879 174.043 174.311 173.938 174.732C173.927 174.774 173.917 174.816 173.906 174.858C173.801 175.301 173.717 175.743 173.643 176.186C173.643 176.196 173.643 176.196 173.643 176.207C173.569 176.649 173.516 177.092 173.485 177.534C173.485 177.566 173.474 177.608 173.474 177.64C173.443 178.082 173.422 178.514 173.422 178.936L136.295 157.359C136.295 157.19 136.295 157.022 136.305 156.853C136.316 156.674 136.316 156.495 136.326 156.305C136.337 156.221 136.337 156.137 136.347 156.063C136.347 156.031 136.358 155.989 136.358 155.958C136.358 155.895 136.368 155.831 136.368 155.768C136.39 155.589 136.411 155.399 136.432 155.22C136.453 155.031 136.484 154.841 136.516 154.651V154.641C136.516 154.63 136.516 154.63 136.516 154.62C136.548 154.441 136.579 154.262 136.611 154.093C136.653 153.893 136.684 153.703 136.727 153.503C136.737 153.429 136.758 153.366 136.779 153.292C136.79 153.25 136.8 153.208 136.811 153.166C136.832 153.082 136.853 152.997 136.874 152.902C136.927 152.702 136.979 152.502 137.032 152.302C137.074 152.154 137.116 152.017 137.159 151.87C137.169 151.838 137.169 151.817 137.18 151.786C137.19 151.754 137.19 151.733 137.201 151.701C137.264 151.512 137.327 151.312 137.39 151.122C137.454 150.932 137.517 150.743 137.591 150.553C137.601 150.521 137.622 150.479 137.633 150.448C137.643 150.416 137.654 150.395 137.664 150.363C137.706 150.248 137.749 150.121 137.801 150.005C137.875 149.826 137.949 149.636 138.022 149.457C138.075 149.331 138.138 149.194 138.191 149.068C138.202 149.046 138.212 149.025 138.223 149.004C138.233 148.973 138.244 148.952 138.254 148.92C138.339 148.741 138.412 148.551 138.507 148.372C138.602 148.172 138.697 147.982 138.792 147.782C138.802 147.751 138.823 147.719 138.834 147.698C138.855 147.656 138.876 147.624 138.897 147.582C138.981 147.424 139.055 147.266 139.139 147.108C139.245 146.918 139.35 146.718 139.466 146.529C139.519 146.434 139.571 146.328 139.634 146.234C139.655 146.191 139.677 146.16 139.698 146.118C139.792 145.949 139.908 145.791 140.014 145.622C140.161 145.38 140.309 145.138 140.467 144.906C140.488 144.864 140.509 144.832 140.54 144.79C140.772 144.442 141.004 144.105 141.257 143.779C141.425 143.558 141.583 143.336 141.752 143.126C141.889 142.946 142.026 142.778 142.173 142.609L142.184 142.599C142.184 142.599 142.184 142.599 142.195 142.588C142.342 142.42 142.479 142.251 142.626 142.083C142.774 141.914 142.921 141.756 143.069 141.598C143.09 141.577 143.122 141.545 143.143 141.524C143.164 141.493 143.195 141.471 143.216 141.44C143.322 141.335 143.417 141.219 143.522 141.113C143.68 140.955 143.838 140.797 143.996 140.65C144.049 140.597 144.101 140.555 144.144 140.513C144.186 140.481 144.217 140.439 144.259 140.407C144.333 140.334 144.418 140.26 144.491 140.186C144.66 140.039 144.818 139.891 144.986 139.754C145.06 139.691 145.134 139.638 145.208 139.575C145.25 139.543 145.281 139.512 145.324 139.48C145.376 139.438 145.429 139.385 145.492 139.343C145.661 139.217 145.819 139.09 145.987 138.964C146.103 138.88 146.23 138.795 146.346 138.711C146.367 138.701 146.388 138.68 146.409 138.669C146.43 138.659 146.451 138.637 146.472 138.627C146.63 138.522 146.788 138.416 146.946 138.311C147.104 138.205 147.262 138.111 147.42 138.016C147.462 137.995 147.494 137.974 147.525 137.953L265.185 70.02L302.312 91.5966L184.652 159.529C184.273 159.75 183.894 159.993 183.525 160.246C183.504 160.256 183.483 160.277 183.462 160.288C183.114 160.53 182.777 160.783 182.44 161.057Z" fill="#005DB7"/>
<path d="M184.653 159.529C178.447 163.111 173.432 171.803 173.453 178.936L173.706 269.614C173.727 276.747 178.774 279.623 184.979 276.041L302.639 208.108C308.845 204.526 313.859 195.834 313.838 188.702L313.585 98.0233C313.564 90.8908 308.518 88.0146 302.313 91.5966L184.653 159.529Z" fill="#0078D4"/>
<path d="M184.653 159.529C178.447 163.111 173.432 171.803 173.453 178.936L173.706 269.614C173.727 276.747 178.774 279.623 184.979 276.041L302.639 208.108C308.845 204.526 313.859 195.834 313.838 188.702L313.585 98.0233C313.564 90.8908 308.518 88.0146 302.313 91.5966L184.653 159.529Z" fill="url(#paint6_linear_334_116282)"/>
<path d="M243.565 157.612C236.865 161.478 231.45 170.865 231.471 178.556C231.481 183.739 233.957 186.816 237.613 187.121L231.576 217.01L255.839 202.998L249.665 180.157C253.3 175.648 255.744 169.727 255.734 164.544C255.713 156.853 250.266 153.745 243.565 157.612Z" fill="#004E99"/>
<path d="M255.852 203.009L236.667 191.852L231.589 217.021L255.852 203.009Z" fill="#005DB7"/>
<path d="M168.86 95.9577C168.86 95.3256 168.87 94.6829 168.892 94.0403C168.892 93.8717 168.913 93.7031 168.913 93.5346C168.923 93.1448 168.944 92.755 168.965 92.3651C168.986 92.0491 168.986 91.7435 169.007 91.4275C169.018 91.2062 169.05 90.985 169.06 90.7638C169.092 90.3845 169.123 90.0052 169.155 89.6259C169.176 89.3731 169.187 89.1202 169.218 88.8568C169.25 88.5618 169.281 88.2774 169.313 87.9824C169.355 87.6137 169.387 87.2554 169.439 86.8867C169.46 86.6971 169.482 86.518 169.503 86.3283C169.555 85.9385 169.608 85.5487 169.671 85.1589C169.724 84.8218 169.766 84.4846 169.819 84.1369C169.84 84.0211 169.85 83.9052 169.871 83.7893C169.956 83.2414 170.061 82.6831 170.156 82.1352C170.198 81.8824 170.24 81.64 170.282 81.3872C170.293 81.3451 170.293 81.3029 170.303 81.2502C170.461 80.3969 170.64 79.5435 170.82 78.6901C170.82 78.6691 170.83 78.6374 170.841 78.6164C170.883 78.4162 170.935 78.2266 170.978 78.0264C171.125 77.3837 171.262 76.7516 171.42 76.1089C171.441 76.0141 171.473 75.9193 171.494 75.8245C171.578 75.4873 171.673 75.1607 171.757 74.8236C171.873 74.3811 171.978 73.9492 172.105 73.5067C172.189 73.2011 172.273 72.9062 172.358 72.6006C172.516 72.0317 172.684 71.4733 172.863 70.9044C172.937 70.6516 173.021 70.4092 173.106 70.1669C173.222 69.8087 173.327 69.4611 173.443 69.1029C173.517 68.8711 173.59 68.6288 173.675 68.397C173.801 68.0177 173.938 67.649 174.064 67.2802C174.17 66.9852 174.265 66.6902 174.37 66.3952C174.412 66.2688 174.454 66.1424 174.496 66.016C174.77 65.2574 175.055 64.5094 175.35 63.7614C175.35 63.7614 175.35 63.7614 175.35 63.7508C175.35 63.7403 175.36 63.7403 175.36 63.7298C175.645 63.0134 175.929 62.2969 176.224 61.5911C176.287 61.4436 176.351 61.2961 176.414 61.138C176.519 60.8852 176.625 60.6429 176.73 60.39C176.867 60.0845 176.993 59.7684 177.13 59.4629C177.278 59.1258 177.436 58.7886 177.594 58.4515C177.71 58.2092 177.815 57.9669 177.931 57.714C177.994 57.5876 178.047 57.4612 178.11 57.3347C178.437 56.6289 178.774 55.9335 179.121 55.2277C179.143 55.1855 179.164 55.1434 179.174 55.1118C179.174 55.1012 179.174 55.1012 179.185 55.0907C179.617 54.2268 180.059 53.3734 180.512 52.52C180.533 52.4884 180.554 52.4463 180.565 52.4147C181.081 51.4454 181.618 50.4762 182.166 49.5069C182.314 49.2435 182.472 48.9801 182.619 48.7167C182.756 48.485 182.893 48.2637 183.03 48.0425C183.462 47.3155 183.894 46.5886 184.347 45.8722C184.568 45.514 184.79 45.1558 185.021 44.7976C185.485 44.0601 185.97 43.3331 186.444 42.6167C186.591 42.406 186.728 42.1742 186.865 41.9635C186.907 41.8898 186.96 41.8266 187.013 41.7633C187.771 40.6466 188.561 39.5404 189.362 38.4552C189.425 38.3709 189.478 38.2866 189.541 38.2024C189.752 37.9179 189.973 37.6334 190.194 37.349C190.542 36.8854 190.9 36.4113 191.258 35.9583C191.353 35.8424 191.437 35.716 191.532 35.6001C191.775 35.284 192.038 34.9785 192.291 34.673C192.575 34.3148 192.86 33.9671 193.144 33.6089C193.228 33.5035 193.313 33.3982 193.397 33.3034C193.692 32.9452 193.998 32.5975 194.293 32.2498C194.556 31.9338 194.819 31.6177 195.093 31.3122C195.156 31.2384 195.209 31.1752 195.272 31.1015C195.841 30.4483 196.421 29.8056 197.011 29.1735C197.074 29.0997 197.148 29.026 197.211 28.9522C197.78 28.3412 198.359 27.7301 198.939 27.1401C198.981 27.098 199.012 27.0664 199.055 27.0242C199.234 26.8346 199.423 26.666 199.602 26.4764C199.992 26.0866 200.382 25.6862 200.782 25.307C200.888 25.2121 200.983 25.1173 201.088 25.0225C201.351 24.7697 201.615 24.5379 201.878 24.2956C202.152 24.0427 202.426 23.7793 202.71 23.5265C202.868 23.379 203.037 23.242 203.195 23.1051C203.479 22.8522 203.764 22.5993 204.048 22.357C204.259 22.1779 204.47 21.9883 204.68 21.8092C204.902 21.6196 205.133 21.4404 205.355 21.2613C205.639 21.019 205.934 20.7873 206.219 20.5555C206.377 20.429 206.524 20.3026 206.682 20.1762C206.988 19.9339 207.293 19.7126 207.599 19.4703C207.873 19.2596 208.136 19.0594 208.41 18.8487C208.505 18.775 208.6 18.7012 208.705 18.6275C209.147 18.3009 209.601 17.9848 210.043 17.6688C210.243 17.5318 210.433 17.3843 210.633 17.2473C210.665 17.2263 210.707 17.1947 210.738 17.1736C211.423 16.71 212.108 16.2465 212.803 15.804C212.824 15.7829 212.856 15.7724 212.888 15.7513C213.056 15.6459 213.235 15.5406 213.414 15.4352C213.92 15.1192 214.415 14.8136 214.921 14.5081C215.09 14.4133 215.248 14.3185 215.416 14.2237C215.974 13.9076 216.522 13.5915 217.07 13.2965C217.228 13.2123 217.386 13.1385 217.544 13.0542C217.829 12.9067 218.103 12.7592 218.387 12.6223C218.629 12.4958 218.882 12.3589 219.125 12.243C219.377 12.1166 219.63 12.0112 219.883 11.8848C220.147 11.7584 220.399 11.6425 220.652 11.5161C220.789 11.4528 220.937 11.3791 221.084 11.3159C221.506 11.1262 221.916 10.9577 222.338 10.7891C222.506 10.7154 222.675 10.6416 222.844 10.5784C222.886 10.5573 222.928 10.5363 222.97 10.5257C223.592 10.2729 224.203 10.0516 224.814 9.83038C224.866 9.80931 224.919 9.79877 224.972 9.7777C225.14 9.71449 225.309 9.67235 225.488 9.60913C225.867 9.48271 226.257 9.34575 226.636 9.22986C226.784 9.18771 226.931 9.14557 227.079 9.10343C227.311 9.02968 227.553 8.96647 227.785 8.90326C228.006 8.84004 228.217 8.77683 228.438 8.72415C228.691 8.66094 228.933 8.6188 229.186 8.55559C229.428 8.50291 229.66 8.45023 229.892 8.39756C230.008 8.37648 230.134 8.34488 230.25 8.31327C230.619 8.23952 230.977 8.18685 231.335 8.13417C231.535 8.10256 231.746 8.06042 231.946 8.02881C231.999 8.01828 232.052 8.00774 232.094 8.00774C232.726 7.92346 233.347 7.86025 233.969 7.80757C234.707 7.81811 235.444 7.79703 236.16 7.7865C236.213 7.7865 236.255 7.7865 236.308 7.7865C236.466 7.7865 236.613 7.80757 236.761 7.80757C237.319 7.81811 237.878 7.83918 238.426 7.88132C238.531 7.89185 238.647 7.89185 238.752 7.89185C239.037 7.91292 239.321 7.95507 239.606 7.98667C239.721 7.99721 239.848 8.00774 239.964 8.02881C240.459 8.09203 240.944 8.17631 241.428 8.27113C241.481 8.28167 241.523 8.2922 241.576 8.30274C241.797 8.34488 242.008 8.40809 242.218 8.45023C242.576 8.53452 242.935 8.6188 243.282 8.71362C243.514 8.77683 243.735 8.85058 243.957 8.92433C244.178 8.98754 244.389 9.05075 244.61 9.1245C244.694 9.15611 244.778 9.19825 244.873 9.22986C245.295 9.38789 245.706 9.55646 246.116 9.73556C246.306 9.81984 246.506 9.89359 246.696 9.98841C247.286 10.2623 247.876 10.5679 248.445 10.8945L263.605 19.7126C267.819 22.2411 271.117 26.1498 273.509 31.4175C275.9 36.6853 277.101 43.1013 277.122 50.6447L277.207 89.9209V89.9314C277.196 95.3256 271.265 99.6978 263.942 99.6978C256.62 99.6978 250.678 95.3151 250.678 89.9104C250.678 89.8893 250.678 89.8788 250.678 89.8577L250.594 48.7378C250.594 48.0319 250.573 47.3366 250.552 46.6518C250.552 46.5254 250.531 46.4095 250.531 46.2831C250.499 45.7457 250.478 45.219 250.425 44.7027C250.404 44.471 250.373 44.2392 250.352 44.0074C250.31 43.6071 250.267 43.2172 250.225 42.8274C250.194 42.564 250.151 42.3007 250.109 42.0373C250.057 41.7001 250.004 41.3525 249.951 41.0153C249.899 40.7203 249.835 40.4464 249.783 40.1514C249.72 39.8459 249.656 39.5509 249.593 39.2559C249.519 38.9293 249.425 38.6027 249.34 38.2866C249.277 38.0338 249.203 37.7704 249.13 37.5281C248.993 37.0645 248.835 36.6115 248.677 36.1585C248.634 36.0321 248.592 35.9056 248.55 35.7792C248.35 35.2419 248.139 34.7151 247.907 34.2094C247.749 33.8618 247.581 33.5352 247.412 33.198C247.317 33.0084 247.223 32.8082 247.117 32.6186C246.98 32.3552 246.822 32.1023 246.675 31.8495C246.601 31.7231 246.527 31.6072 246.454 31.4807C245.706 31.4597 244.947 31.4597 244.167 31.5123C239.901 31.8073 235.275 33.3877 230.292 36.2638C225.309 39.2138 220.652 42.9855 216.343 47.5789C212.034 52.1618 208.336 57.2715 205.239 62.9185C202.141 68.555 199.729 74.36 197.969 80.3442C196.22 86.3283 195.357 92.1439 195.367 97.8014L195.451 137.078C195.451 142.482 189.509 146.865 182.187 146.865C174.855 146.865 168.923 142.419 168.923 137.014C168.944 137.014 168.86 95.9577 168.86 95.9577Z" fill="#D8D9DB"/>
</g>
<path d="M315.4 118.173L325.638 123.984C325.638 123.984 310.336 128.887 310.336 151.922C310.336 152.879 310.721 158.392 314.741 160.429C314.732 160.443 314.722 160.452 314.722 160.452L304.498 154.619C300.483 152.582 300.103 147.069 300.103 146.117C300.098 123.077 315.4 118.173 315.4 118.173Z" fill="#0078D4"/>
<path d="M315.4 118.173L325.638 123.984C325.638 123.984 310.336 128.887 310.336 151.922C310.336 152.879 310.721 158.392 314.741 160.429C314.732 160.443 314.722 160.452 314.722 160.452L304.498 154.619C300.483 152.582 300.103 147.069 300.103 146.117C300.098 123.077 315.4 118.173 315.4 118.173Z" fill="url(#paint7_linear_334_116282)"/>
<path d="M367.45 88.4444L357.029 82.6479C365.311 76.4942 371.406 76.1829 375.43 78.7881L384.908 84.0489C380.897 82.0618 375.11 82.7532 367.45 88.4444Z" fill="#0078D4"/>
<path d="M367.45 88.4444L357.029 82.6479C365.311 76.4942 371.406 76.1829 375.43 78.7881L384.908 84.0489C380.897 82.0618 375.11 82.7532 367.45 88.4444Z" fill="url(#paint8_linear_334_116282)"/>
<path d="M325.702 124.029L315.332 118.21C315.332 102.707 333.133 78.4309 347.656 78.4309C351.072 78.4309 353.421 79.4657 354.927 80.5096L363.865 85.5689C362.422 84.8684 360.513 84.3236 358.027 84.3236C343.527 84.319 325.757 108.521 325.702 124.029Z" fill="#0078D4"/>
<path d="M325.702 124.029L315.332 118.21C315.332 102.707 333.133 78.4309 347.656 78.4309C351.072 78.4309 353.421 79.4657 354.927 80.5096L363.865 85.5689C362.422 84.8684 360.513 84.3236 358.027 84.3236C343.527 84.319 325.757 108.521 325.702 124.029Z" fill="url(#paint9_linear_334_116282)"/>
<path d="M367.464 88.4442C367.464 88.4442 364.909 84.2273 358.009 84.2273C343.486 84.2273 325.684 108.503 325.684 124.006C325.684 124.006 310.382 128.91 310.382 151.945C310.382 153.515 311.417 167.453 328.024 157.865C328.024 157.865 364.959 136.533 373.283 131.726C381.607 126.918 391.845 109.185 391.845 98.1967C391.845 87.208 384.034 76.137 367.464 88.4442Z" fill="#C5E4EC"/>
<path d="M380.409 152.515L382.379 153.661C381.809 153.329 381.454 152.624 381.451 151.621L379.481 150.476C379.484 151.479 379.836 152.183 380.409 152.515Z" fill="#D2D2D2"/>
<path d="M381.375 125.472L381.451 151.621C381.456 153.642 382.884 154.455 384.642 153.44L427.836 128.498C429.591 127.484 431.014 125.025 431.008 123.008L430.932 96.8585L381.375 125.472Z" fill="white"/>
<path d="M381.376 125.472L379.406 124.326L379.482 150.475L381.452 151.618L381.376 125.472Z" fill="#D2D2D2"/>
<path d="M430.931 96.858L428.961 95.7151L379.404 124.326L381.374 125.472L430.931 96.858Z" fill="#D2D2D2"/>
<path d="M430.004 88.4883L428.034 87.3427C427.455 87.0073 426.654 87.0521 425.771 87.5634L427.741 88.7091C428.624 88.2005 429.425 88.153 430.004 88.4883Z" fill="#0078D4"/>
<path d="M381.375 119.141L379.405 117.996L379.425 124.221L381.392 125.364L381.375 119.141Z" fill="#005DB7"/>
<path d="M427.742 88.7128L425.772 87.5671L382.577 112.506L384.547 113.652L427.742 88.7128Z" fill="#0078D4"/>
<path d="M384.546 113.651C382.789 114.665 381.369 117.124 381.375 119.142L381.392 125.365L430.952 96.7539L430.935 90.531C430.929 88.5135 429.498 87.6976 427.744 88.7119L384.546 113.651Z" fill="#0078D4"/>
<path d="M384.546 113.651C382.789 114.665 381.369 117.124 381.375 119.142L381.392 125.365L430.952 96.7539L430.935 90.531C430.929 88.5135 429.498 87.6976 427.744 88.7119L384.546 113.651Z" fill="url(#paint10_linear_334_116282)"/>
<path d="M384.547 113.651L382.577 112.505C380.819 113.519 379.399 115.978 379.405 117.996L381.375 119.141C381.369 117.124 382.789 114.665 384.547 113.651Z" fill="#0078D4"/>
<path d="M436.905 119.821L438.875 120.967C438.305 120.634 437.95 119.93 437.947 118.927L435.977 117.781C435.98 118.785 436.332 119.489 436.905 119.821Z" fill="#D2D2D2"/>
<path d="M437.871 92.778L437.947 118.927C437.952 120.947 439.38 121.761 441.138 120.746L484.332 95.8042C486.087 94.7899 487.509 92.3309 487.504 90.3134L487.428 64.1643L437.871 92.778Z" fill="white"/>
<path d="M437.873 92.7776L435.903 91.632L435.978 117.781L437.948 118.924L437.873 92.7776Z" fill="#D2D2D2"/>
<path d="M487.427 64.1637L485.457 63.0209L435.9 91.6318L437.87 92.7774L487.427 64.1637Z" fill="#D2D2D2"/>
<path d="M486.5 55.7951L484.53 54.6494C483.951 54.3141 483.15 54.3588 482.267 54.8702L484.236 56.0158C485.119 55.5073 485.921 55.4598 486.5 55.7951Z" fill="#0078D4"/>
<path d="M437.871 86.4494L435.901 85.3037L435.92 91.5294L437.888 92.6723L437.871 86.4494Z" fill="#005DB7"/>
<path d="M484.238 56.0196L482.268 54.8739L439.073 79.8131L441.043 80.9588L484.238 56.0196Z" fill="#0078D4"/>
<path d="M441.042 80.9579C439.285 81.9722 437.865 84.4312 437.871 86.4487L437.888 92.6716L487.448 64.0607L487.431 57.8378C487.425 55.8203 485.994 55.0043 484.24 56.0187L441.042 80.9579Z" fill="#0078D4"/>
<path d="M441.042 80.9579C439.285 81.9722 437.865 84.4312 437.871 86.4487L437.888 92.6716L487.448 64.0607L487.431 57.8378C487.425 55.8203 485.994 55.0043 484.24 56.0187L441.042 80.9579Z" fill="url(#paint11_linear_334_116282)"/>
<path d="M441.042 80.9573L439.072 79.8116C437.314 80.826 435.895 83.285 435.9 85.3025L437.87 86.4481C437.865 84.4306 439.284 81.9716 441.042 80.9573Z" fill="#0078D4"/>
<path d="M380.409 254.684L382.379 255.829C381.809 255.497 381.454 254.793 381.451 253.789L379.481 252.644C379.484 253.647 379.836 254.351 380.409 254.684Z" fill="#D2D2D2"/>
<path d="M381.376 227.64L381.451 253.789C381.457 255.81 382.884 256.623 384.642 255.609L427.837 230.667C429.591 229.652 431.014 227.193 431.008 225.176L430.933 199.027L381.376 227.64Z" fill="white"/>
<path d="M381.376 227.64L379.406 226.494L379.482 252.643L381.452 253.786L381.376 227.64Z" fill="#D2D2D2"/>
<path d="M430.931 199.026L428.961 197.883L379.404 226.494L381.374 227.64L430.931 199.026Z" fill="#D2D2D2"/>
<path d="M430.005 190.657L428.035 189.512C427.456 189.176 426.654 189.221 425.771 189.732L427.741 190.878C428.624 190.37 429.426 190.322 430.005 190.657Z" fill="#0078D4"/>
<path d="M381.376 221.31L379.406 220.165L379.425 226.391L381.392 227.533L381.376 221.31Z" fill="#005DB7"/>
<path d="M427.742 190.882L425.772 189.736L382.577 214.675L384.547 215.821L427.742 190.882Z" fill="#0078D4"/>
<path d="M384.547 215.82C382.79 216.835 381.37 219.294 381.376 221.311L381.393 227.534L430.952 198.923L430.936 192.7C430.93 190.683 429.499 189.867 427.745 190.881L384.547 215.82Z" fill="#0078D4"/>
<path d="M384.547 215.82C382.79 216.835 381.37 219.294 381.376 221.311L381.393 227.534L430.952 198.923L430.936 192.7C430.93 190.683 429.499 189.867 427.745 190.881L384.547 215.82Z" fill="url(#paint12_linear_334_116282)"/>
<path d="M384.548 215.82L382.578 214.674C380.82 215.688 379.401 218.147 379.406 220.165L381.376 221.31C381.371 219.293 382.79 216.834 384.548 215.82Z" fill="#0078D4"/>
<path d="M436.905 221.991L438.875 223.137C438.305 222.804 437.95 222.1 437.947 221.097L435.977 219.951C435.98 220.954 436.332 221.659 436.905 221.991Z" fill="#D2D2D2"/>
<path d="M437.871 194.948L437.947 221.097C437.952 223.117 439.38 223.93 441.138 222.916L484.332 197.974C486.087 196.96 487.509 194.501 487.504 192.483L487.428 166.334L437.871 194.948Z" fill="white"/>
<path d="M437.873 194.947L435.903 193.802L435.978 219.951L437.948 221.094L437.873 194.947Z" fill="#D2D2D2"/>
<path d="M487.427 166.334L485.457 165.191L435.9 193.802L437.87 194.947L487.427 166.334Z" fill="#D2D2D2"/>
<path d="M486.501 157.964L484.531 156.818C483.952 156.483 483.15 156.528 482.267 157.039L484.237 158.185C485.12 157.676 485.922 157.629 486.501 157.964Z" fill="#0078D4"/>
<path d="M437.872 188.618L435.902 187.473L435.921 193.698L437.888 194.841L437.872 188.618Z" fill="#005DB7"/>
<path d="M484.238 158.188L482.268 157.043L439.073 181.982L441.043 183.128L484.238 158.188Z" fill="#0078D4"/>
<path d="M441.043 183.127C439.286 184.141 437.866 186.6 437.872 188.618L437.888 194.84L487.448 166.23L487.431 160.007C487.426 157.989 485.995 157.173 484.24 158.188L441.043 183.127Z" fill="#0078D4"/>
<path d="M441.043 183.127C439.286 184.141 437.866 186.6 437.872 188.618L437.888 194.84L487.448 166.23L487.431 160.007C487.426 157.989 485.995 157.173 484.24 158.188L441.043 183.127Z" fill="url(#paint13_linear_334_116282)"/>
<path d="M441.043 183.127L439.073 181.982C437.315 182.996 435.895 185.455 435.901 187.472L437.871 188.618C437.865 186.601 439.285 184.142 441.043 183.127Z" fill="#0078D4"/>
<path d="M436.905 170.656L438.875 171.801C438.305 171.469 437.95 170.765 437.947 169.762L435.977 168.616C435.98 169.619 436.332 170.323 436.905 170.656Z" fill="#D2D2D2"/>
<path d="M437.871 143.613L437.947 169.762C437.952 171.782 439.38 172.595 441.138 171.581L484.332 146.639C486.087 145.625 487.509 143.166 487.504 141.148L487.428 114.999L437.871 143.613Z" fill="white"/>
<path d="M437.873 143.612L435.903 142.467L435.978 168.616L437.948 169.759L437.873 143.612Z" fill="#D2D2D2"/>
<path d="M487.428 114.998L485.458 113.855L435.901 142.466L437.871 143.612L487.428 114.998Z" fill="#D2D2D2"/>
<path d="M486.501 106.629L484.531 105.483C483.953 105.148 483.151 105.192 482.268 105.704L484.238 106.849C485.121 106.341 485.923 106.293 486.501 106.629Z" fill="#0078D4"/>
<path d="M437.872 137.282L435.902 136.136L435.921 142.362L437.889 143.505L437.872 137.282Z" fill="#005DB7"/>
<path d="M484.238 106.853L482.268 105.708L439.073 130.647L441.043 131.792L484.238 106.853Z" fill="#0078D4"/>
<path d="M441.042 131.791C439.285 132.806 437.865 135.265 437.871 137.282L437.888 143.505L487.448 114.894L487.431 108.671C487.425 106.654 485.994 105.838 484.24 106.852L441.042 131.791Z" fill="#0078D4"/>
<path d="M441.042 131.791C439.285 132.806 437.865 135.265 437.871 137.282L437.888 143.505L487.448 114.894L487.431 108.671C487.425 106.654 485.994 105.838 484.24 106.852L441.042 131.791Z" fill="url(#paint14_linear_334_116282)"/>
<path d="M441.044 131.791L439.074 130.645C437.316 131.66 435.897 134.119 435.902 136.136L437.872 137.282C437.867 135.264 439.286 132.805 441.044 131.791Z" fill="#0078D4"/>
<path d="M493.402 137.962L495.372 139.107C494.802 138.775 494.447 138.071 494.444 137.068L492.474 135.922C492.477 136.925 492.829 137.629 493.402 137.962Z" fill="#D2D2D2"/>
<path d="M494.368 110.919L494.444 137.068C494.449 139.088 495.877 139.901 497.635 138.887L540.829 113.945C542.584 112.93 544.006 110.471 544.001 108.454L543.925 82.3048L494.368 110.919Z" fill="white"/>
<path d="M494.369 110.918L492.399 109.772L492.474 135.922L494.444 137.064L494.369 110.918Z" fill="#D2D2D2"/>
<path d="M543.924 82.3042L541.954 81.1614L492.397 109.772L494.367 110.918L543.924 82.3042Z" fill="#D2D2D2"/>
<path d="M542.997 73.9356L541.027 72.7899C540.449 72.4546 539.647 72.4993 538.764 73.0107L540.734 74.1563C541.617 73.6478 542.419 73.6003 542.997 73.9356Z" fill="#0078D4"/>
<path d="M494.369 104.589L492.399 103.443L492.419 109.669L494.386 110.812L494.369 104.589Z" fill="#005DB7"/>
<path d="M540.735 74.1601L538.765 73.0144L495.571 97.9536L497.541 99.0993L540.735 74.1601Z" fill="#0078D4"/>
<path d="M497.54 99.0984C495.782 100.113 494.363 102.572 494.368 104.589L494.385 110.812L543.945 82.2012L543.928 75.9783C543.923 73.9608 542.492 73.1449 540.737 74.1592L497.54 99.0984Z" fill="#0078D4"/>
<path d="M497.54 99.0984C495.782 100.113 494.363 102.572 494.368 104.589L494.385 110.812L543.945 82.2012L543.928 75.9783C543.923 73.9608 542.492 73.1449 540.737 74.1592L497.54 99.0984Z" fill="url(#paint15_linear_334_116282)"/>
<path d="M497.54 99.0989L495.57 97.9532C493.812 98.9676 492.393 101.427 492.399 103.444L494.369 104.59C494.363 102.572 495.782 100.113 497.54 99.0989Z" fill="#0078D4"/>
<defs>
<linearGradient id="paint0_linear_334_116282" x1="275.897" y1="30.5244" x2="275.897" y2="62.0544" gradientUnits="userSpaceOnUse">
<stop stop-color="#69E2FF"/>
<stop offset="1" stop-color="white" stop-opacity="0"/>
</linearGradient>
<linearGradient id="paint1_linear_334_116282" x1="319.224" y1="0" x2="319.224" y2="8.35436" gradientUnits="userSpaceOnUse">
<stop stop-color="#69E2FF"/>
<stop offset="1" stop-color="white" stop-opacity="0"/>
</linearGradient>
<linearGradient id="paint2_linear_334_116282" x1="295.83" y1="0.887207" x2="295.83" y2="34.8927" gradientUnits="userSpaceOnUse">
<stop stop-color="#69E2FF"/>
<stop offset="1" stop-color="white" stop-opacity="0"/>
</linearGradient>
<linearGradient id="paint3_linear_334_116282" x1="21.4681" y1="171.462" x2="21.4681" y2="242.552" gradientUnits="userSpaceOnUse">
<stop stop-color="#69E2FF"/>
<stop offset="1" stop-color="white" stop-opacity="0"/>
</linearGradient>
<linearGradient id="paint4_linear_334_116282" x1="119.158" y1="102.636" x2="119.158" y2="121.473" gradientUnits="userSpaceOnUse">
<stop stop-color="#69E2FF"/>
<stop offset="1" stop-color="white" stop-opacity="0"/>
</linearGradient>
<linearGradient id="paint5_linear_334_116282" x1="66.4094" y1="104.636" x2="66.4094" y2="181.308" gradientUnits="userSpaceOnUse">
<stop stop-color="#69E2FF"/>
<stop offset="1" stop-color="white" stop-opacity="0"/>
</linearGradient>
<linearGradient id="paint6_linear_334_116282" x1="243.646" y1="90.0559" x2="243.646" y2="277.582" gradientUnits="userSpaceOnUse">
<stop stop-color="#69E2FF"/>
<stop offset="1" stop-color="white" stop-opacity="0"/>
</linearGradient>
<linearGradient id="paint7_linear_334_116282" x1="312.87" y1="118.173" x2="312.87" y2="160.452" gradientUnits="userSpaceOnUse">
<stop stop-color="#69E2FF"/>
<stop offset="1" stop-color="white" stop-opacity="0"/>
</linearGradient>
<linearGradient id="paint8_linear_334_116282" x1="370.968" y1="77.2419" x2="370.968" y2="88.4444" gradientUnits="userSpaceOnUse">
<stop stop-color="#69E2FF"/>
<stop offset="1" stop-color="white" stop-opacity="0"/>
</linearGradient>
<linearGradient id="paint9_linear_334_116282" x1="339.598" y1="78.4309" x2="339.598" y2="124.029" gradientUnits="userSpaceOnUse">
<stop stop-color="#69E2FF"/>
<stop offset="1" stop-color="white" stop-opacity="0"/>
</linearGradient>
<linearGradient id="paint10_linear_334_116282" x1="406.163" y1="88.2759" x2="406.163" y2="125.365" gradientUnits="userSpaceOnUse">
<stop stop-color="#69E2FF"/>
<stop offset="1" stop-color="white" stop-opacity="0"/>
</linearGradient>
<linearGradient id="paint11_linear_334_116282" x1="462.659" y1="55.5826" x2="462.659" y2="92.6716" gradientUnits="userSpaceOnUse">
<stop stop-color="#69E2FF"/>
<stop offset="1" stop-color="white" stop-opacity="0"/>
</linearGradient>
<linearGradient id="paint12_linear_334_116282" x1="406.164" y1="190.445" x2="406.164" y2="227.534" gradientUnits="userSpaceOnUse">
<stop stop-color="#69E2FF"/>
<stop offset="1" stop-color="white" stop-opacity="0"/>
</linearGradient>
<linearGradient id="paint13_linear_334_116282" x1="462.66" y1="157.751" x2="462.66" y2="194.84" gradientUnits="userSpaceOnUse">
<stop stop-color="#69E2FF"/>
<stop offset="1" stop-color="white" stop-opacity="0"/>
</linearGradient>
<linearGradient id="paint14_linear_334_116282" x1="462.659" y1="106.416" x2="462.659" y2="143.505" gradientUnits="userSpaceOnUse">
<stop stop-color="#69E2FF"/>
<stop offset="1" stop-color="white" stop-opacity="0"/>
</linearGradient>
<linearGradient id="paint15_linear_334_116282" x1="519.157" y1="73.7231" x2="519.157" y2="110.812" gradientUnits="userSpaceOnUse">
<stop stop-color="#69E2FF"/>
<stop offset="1" stop-color="white" stop-opacity="0"/>
</linearGradient>
<clipPath id="clip0_334_116282">
<rect width="177.522" height="269.792" fill="white" transform="matrix(-1 0 0 1 313.839 7.78613)"/>
</clipPath>
</defs>
</svg>
