<svg width="70" height="96" viewBox="0 0 70 96" fill="none" xmlns="http://www.w3.org/2000/svg">
<path d="M15.729 3.91271L62.818 31.0993L63.9471 30.4476L16.8429 3.26953L15.729 3.91271Z" fill="#EFEFEB"/>
<path d="M17.9725 2.61719L16.8429 3.26951L63.9471 30.4476L65.0767 29.7952L17.9725 2.61719Z" fill="#E6E6E6"/>
<path d="M66.2063 29.1429L19.1022 1.96484L17.9725 2.61688L65.0767 29.7949L66.2063 29.1429Z" fill="#EFEFEB"/>
<path d="M67.336 28.4906L20.2318 1.3125L19.1022 1.96483L66.2063 29.1429L67.336 28.4906Z" fill="#E6E6E6"/>
<path d="M68.4656 27.8382L21.3614 0.660156L20.2318 1.3122L67.336 28.4902L68.4656 27.8382Z" fill="#EFEFEB"/>
<path d="M22.4908 0.00976562L21.3615 0.661805L68.4656 27.8399L69.5941 27.1881L22.4908 0.00976562Z" fill="#E6E6E6"/>
<path d="M69.5941 92.0883L62.818 96.0006V31.0995L69.5941 27.1875V92.0883Z" fill="#D2D2D2"/>
<path d="M15.729 3.91211V68.8132L62.818 95.9999V31.0987L15.729 3.91211Z" fill="#FAF9F0"/>
<path d="M32.3657 8.75155C32.4215 8.73668 32.4781 8.72381 32.535 8.71094C32.4784 8.72381 32.4215 8.73639 32.3657 8.75155Z" fill="#D3D1E9"/>
<path d="M31.8181 8.94403C31.8313 8.93832 31.8447 8.93345 31.8579 8.92773C31.8447 8.93345 31.8313 8.93832 31.8181 8.94403Z" fill="#D3D1E9"/>
<path d="M32.0881 8.83791C32.1242 8.82533 32.1611 8.81446 32.1977 8.80273C32.1611 8.81475 32.1242 8.82533 32.0881 8.83791Z" fill="#D3D1E9"/>
<path d="M63.9473 30.4473L62.818 31.0993V96.0004L63.9473 95.3484V30.4473Z" fill="#D2D2D2"/>
<path d="M63.9473 30.447V95.3481L65.0766 94.6961V29.7949L63.9473 30.447Z" fill="#C8C8C8"/>
<path d="M65.0767 29.7966V94.6977L66.2063 94.0457V29.1445L65.0767 29.7966Z" fill="#D2D2D2"/>
<path d="M66.2063 29.1442V94.0454L67.3356 93.3933V28.4922L66.2063 29.1442Z" fill="#C8C8C8"/>
<path d="M67.3357 93.393L68.4653 92.7407V27.8398L67.3357 28.4919V93.393Z" fill="#D2D2D2"/>
<path d="M69.594 92.0884V27.1875L68.4652 27.8393V92.7401L69.594 92.0884Z" fill="#C8C8C8"/>
<path d="M45.1002 23.3402C45.1002 22.0933 44.8926 20.8029 44.4777 19.4694C44.0621 18.1356 43.4922 16.8486 42.7661 15.6049C42.0394 14.362 41.1946 13.2281 40.2297 12.1994C39.2648 11.1719 38.2327 10.3408 37.1331 9.70595C36.0332 9.07078 35.0013 8.71044 34.0364 8.62408C33.0715 8.53857 32.2262 8.69643 31.5001 9.10081C30.7734 9.50576 30.2034 10.1344 29.7885 10.9889C29.3732 11.8431 29.1659 12.8941 29.1659 14.141L21.199 9.54094V21.6915L53.0671 40.0904V27.9399L45.1002 23.3402ZM37.1331 23.2587C34.9327 21.9883 33.149 18.9357 33.149 16.4408C33.149 13.9456 34.9327 12.953 37.1331 14.223C39.3334 15.4931 41.1171 18.546 41.1171 21.0409C41.1171 23.5361 39.3334 24.529 37.1331 23.2587Z" fill="#B7AEAE"/>
<path d="M55.2069 26.7051L53.0671 27.9405V40.0913L55.2069 38.8559V26.7051Z" fill="#867878"/>
<path d="M54.0166 18.1939C54.0166 16.9471 53.8093 15.6567 53.3943 14.3232C52.9788 12.9893 52.4088 11.7024 51.6827 10.4587C50.956 9.21581 50.1112 8.08189 49.1463 7.05321C48.1814 6.02568 47.1493 5.19461 46.0497 4.55973C44.9498 3.92456 43.918 3.56422 42.9531 3.47757C41.9885 3.39206 41.1428 3.55021 40.4167 3.9543L31.5521 9.07453C32.2668 8.69103 33.0944 8.5406 34.0365 8.62411C35.0011 8.71048 36.0329 9.0711 37.1331 9.70598C38.2327 10.3409 39.2648 11.1722 40.2297 12.1995C41.1943 13.2281 42.0394 14.3621 42.7661 15.6049C43.4922 16.8487 44.0624 18.1356 44.4777 19.4694C44.8926 20.803 45.1 22.0933 45.1 23.3402L54.0166 18.1939Z" fill="#9E9393"/>
<path d="M39.2825 21.053C37.0822 19.7827 35.2985 16.7304 35.2985 14.2352C35.2985 14.0381 35.3134 13.854 35.3351 13.6758C34.039 13.6729 33.149 14.6807 33.149 16.4412C33.149 18.9361 34.9327 21.9887 37.1331 23.2591C39.1595 24.429 40.8288 23.6757 41.0805 21.6009C40.54 21.5998 39.9303 21.4268 39.2825 21.053Z" fill="#867878"/>
<path d="M47.2414 22.1044L47.2399 22.1035L45.1002 23.339L53.0671 27.9387L55.206 26.7038L47.2414 22.1044Z" fill="#9E9393"/>
<path d="M23.3378 8.30664L21.199 9.54151L23.8546 11.0747L29.1659 14.1413C29.1659 13.9454 29.1727 13.7563 29.183 13.5701C29.1853 13.5278 29.1885 13.4861 29.1913 13.444C29.2028 13.2764 29.2182 13.1126 29.2379 12.953C29.2397 12.939 29.2408 12.9247 29.2428 12.9107C29.3194 12.3215 29.3952 12.0813 29.4664 11.8451L23.3384 8.30693L23.3378 8.30664Z" fill="#9E9393"/>
<path d="M20.972 39.084V44.327L57.6731 64.8224V59.5794L20.972 39.084Z" fill="#E6E6E6"/>
<path d="M20.972 30.0273V35.2704L49.8086 51.7143V46.4713L20.972 30.0273Z" fill="#E6E6E6"/>
<path d="M20.972 48.6152V53.8582L42.1824 65.5359V60.2929L20.972 48.6152Z" fill="#E6E6E6"/>
<path d="M27.7407 66.7708L27.7111 75.1669C27.7062 76.7626 27.5237 78.176 27.1671 79.4036C26.8105 80.6312 26.3208 81.7076 25.6963 82.6312C25.1046 83.5055 24.4095 84.2532 23.6157 84.8777C23.8918 84.7791 24.163 84.6723 24.4308 84.5589C24.8959 84.3617 25.3446 84.1382 25.7784 83.8933C26.2731 83.6123 26.7464 83.3017 27.2 82.9582C28.0496 82.314 28.7875 81.5301 29.4136 80.6065C30.0381 79.683 30.5295 78.6082 30.8845 77.3789C31.2411 76.1513 31.4219 74.7396 31.4285 73.1422L31.458 64.7461L27.7407 66.7708Z" fill="#AD8C00"/>
<path d="M4.54743 52.8128C5.26066 53.0527 5.96405 53.2154 6.65756 53.3009C7.35108 53.3863 8.04622 53.3798 8.73974 53.2812C9.5598 53.1563 10.3799 53.1858 11.1983 53.3732C12.0167 53.5605 12.9173 53.9385 13.8984 54.5104C14.3897 54.7964 14.8548 55.1037 15.2986 55.4324C15.7406 55.761 16.1712 56.1209 16.5886 56.5121C17.0077 56.9032 17.4169 57.3288 17.8212 57.7874C18.2254 58.2475 18.633 58.7438 19.0455 59.2812C19.7374 60.1867 20.4276 61.0002 21.1195 61.7217C21.8114 62.4415 22.5114 63.0972 23.223 63.6855C23.9346 64.2755 24.6659 64.8211 25.4153 65.324C26.1664 65.8269 26.9404 66.31 27.7391 66.7751L31.4548 64.7488C30.6561 64.2837 29.8821 63.8006 29.1311 63.2977C28.3817 62.7948 27.6503 62.2492 26.9387 61.6592C26.2272 61.0692 25.5254 60.4152 24.8352 59.6953C24.1433 58.9755 23.4515 58.1621 22.7612 57.2549C22.3487 56.7191 21.9412 56.2212 21.5369 55.761C21.1326 55.3025 20.7234 54.8769 20.3043 54.4858C19.8869 54.0946 19.4564 53.7347 19.0143 53.4061C18.5706 53.0774 18.1055 52.7701 17.6141 52.4841C16.633 51.9122 15.7324 51.5342 14.914 51.3469C14.0939 51.1612 13.2755 51.1299 12.4555 51.2548C11.7619 51.3551 11.0668 51.3617 10.3733 51.2746C9.67977 51.1891 8.9764 51.0264 8.26317 50.7865C7.55158 50.5465 6.8186 50.2409 6.06757 49.8711C5.31654 49.4997 4.54251 49.0823 3.74382 48.6172L0.0280762 50.6435C0.826768 51.1086 1.60081 51.526 2.35185 51.8974C3.10288 52.2688 3.83419 52.5728 4.54743 52.8128Z" fill="#C4A214"/>
<path d="M25.4169 65.3211C24.6675 64.8182 23.9362 64.2726 23.2246 63.6826C22.513 63.0927 21.8113 62.4386 21.1211 61.7188C20.4292 60.999 19.7373 60.1855 19.0471 59.2783C18.6346 58.7426 18.227 58.2446 17.8228 57.7845C17.4185 57.326 17.0093 56.9003 16.5902 56.5092C16.1728 56.1181 15.7422 55.7582 15.3001 55.4295C14.8564 55.1008 14.3913 54.7935 13.9 54.5075C12.9189 53.9356 12.0183 53.5577 11.1999 53.3703C10.3798 53.1846 9.56139 53.1534 8.74134 53.2783C8.04782 53.3785 7.35268 53.3851 6.65916 53.298C5.96565 53.2125 5.26226 53.0498 4.54902 52.8099C3.83743 52.57 3.10448 52.2643 2.35344 51.8945C1.60241 51.5231 0.828367 51.1057 0.0296746 50.6406L0.000104648 59.0384C-0.00482555 60.6341 0.164441 62.2512 0.509554 63.8881C0.856312 65.5249 1.33783 67.1667 1.95411 68.8117C2.57038 70.4584 3.2984 72.0952 4.14146 73.7255C4.98453 75.3557 5.89827 76.958 6.88595 78.5357C7.87364 80.1134 8.91718 81.6549 10.015 83.1586C11.1128 84.6639 12.2204 86.1068 13.333 87.4889L13.7784 88.0444L14.227 88.0099C15.3462 87.9277 16.4571 87.7749 17.5631 87.5514C18.6675 87.3295 19.716 87.0058 20.7119 86.5818C21.177 86.3846 21.6256 86.1611 22.0595 85.9162C22.5541 85.6352 23.0274 85.3246 23.481 84.9811C24.3306 84.3369 25.0685 83.553 25.6947 82.6294C26.3191 81.7058 26.8105 80.631 27.1655 79.4018C27.5221 78.1741 27.7029 76.7625 27.7095 75.1651L27.739 66.7689C26.942 66.3072 26.1679 65.824 25.4169 65.3211Z" fill="#E7BB00"/>
</svg>
